<?xml version="1.0" encoding="utf-8"?>
<!-- Generator: Adobe Illustrator 24.0.2, SVG Export Plug-In . SVG Version: 6.00 Build 0)  -->
<svg version="1.1" xmlns="http://www.w3.org/2000/svg" xmlns:xlink="http://www.w3.org/1999/xlink" x="0px" y="0px"
	 viewBox="0 0 595.3 463.9" style="enable-background:new 0 0 595.3 463.9;" xml:space="preserve">
<style type="text/css">
	.st0{display:none;}
</style>
<g id="Capa_1" class="st0">
	
		<image style="display:inline;overflow:visible;opacity:0.31;" width="714" height="261" xlink:href="ADA0570B.jpg"  transform="matrix(0.6856 0 0 0.6856 52.8789 142.4893)">
	</image>
</g>
<g id="capa_template">
	<g>
		<g>
			<defs>
				<path id="SVGID_1_" d="M187.7,260.9c2.5-1.4,12.2-15.5,5-23.4c-7.2-7.9-26.6-11.9-26.6-11.9l-3.2-1.1l-3.6-1.3l-2.5-1.6
					c-5-6.8-0.3-11.4-0.3-11.4c5.5-8.4,28.7-19.9,34.5-20.6c6.1-0.8,7.9,0,7.9,0s11.8,1.1-0.8,12.2c-12.6,11.2-19.1,10.8-20.2,10.4
					c-1.1-0.4,1.1-2.9,1.1-2.9l-1.8,1.3c-0.5,0.3-0.8,0.8-1.1,1.3c-2.7,5.7-1.5,5.9-1.5,5.9c2.4,3.4,11.6-0.2,11.6-0.2
					c1.8,0.7,27.1-16.2,22.8-24.5c-4.3-8.3-11.6-7.7-11.6-7.7c-20.4,0.7-24.1,2.8-41,13.9c-14,9.2-11.3,16.2-10,18.3
					c0.3,0.4,0.4,0.9,0.6,1.4c1.6,4.9,20.8,10.5,28.3,11.8c7.9,1.4,16.2,6.8,13.3,15.5s-26.3,20.9-26.3,20.9s-47.2,22.1-52.9,11.5
					c-5.8-10.6,43.2-37.1,43.2-37.1c-1.8-1.8-10.4,4.4-11.9,4.3c-1.3-0.1-18.4,10.8-18.4,10.8l-11,8.3c-0.3,0.2-0.6,0.5-0.9,0.8
					l-4.3,4.6c-0.8,0.8-1.3,1.8-1.7,2.8c-1.9,5.3-5.2,20.5,23,14.8c33.8-6.8,34.8-12.9,40.4-14.5
					C174.7,271.9,185.2,262.3,187.7,260.9z M197.1,259.8c0.3,0.9,0.7,1.7,1,2.6c1.1,3.4,5.5,11.9,20.9,0.9
					c18.9-13.5,17.8-21.8,17.8-21.8s4.8,1.2,7.4,0.5c-0.5,0.8-1,1.6-1.5,2.4c-8.6,13.7-8.3,16.2-4.3,21.2
					c3.3,4.2,16.6-9.1,20.9-13.6c-1.3,4.5-1.8,11.6-1.8,11.6c2.2,15.1,32.2-18.5,32.2-18.5l-1.9-1.4c-14.1,15.8-21.6,18-21.6,18
					c-3.1-5.3,12.2-21.1,15.8-25c3.6-3.8-1.7-5-4.3-6.7s-16.6,17.8-16.6,17.8l-0.1,0.9l0,0l0.1-0.9c-9.4,8.8-18.7,13.9-18.7,13.9
					c-5.4-10.1,41-61.9,41-61.9l3.2-0.4l1.1-1.8c0,0,1.4-1.1-6.8-2.9c-7.3-1.6-24.5,27.3-34.4,43.6c-3.4-0.3-11.8-1.6-11.1-5.8
					c0,0-1.3-1.3-1.8-0.5c-0.5,0.8-5.2,2.9-4.1,5.5c1.1,2.7,4.1,2.5,4.1,2.5s-3.8,9.2-21.4,22.5c0,0-13.5,6.3-7.6-4.5s9.2-14,9.2-14
					s13.1-14,17.3-13.7c0,0,4.1-0.7,6.5,0c2.3,0.7,1.4-3.2,1.4-3.2s-15.5-2.6-24.1,6.7c-0.5,0.5-1,1-1.5,1.4
					C209.6,238.1,193.7,251,197.1,259.8z M283.7,226.7c0,0,6.7-9,10.1-7.4c0,0-2.2-6.7-7.2-3.8C286.6,215.5,277.2,222.8,283.7,226.7
					z M289.7,238.7c-0.9,7.3,4.5,11.5,4.5,11.5s-23.6,9.9-15.7,17.2s24.5-11.1,24.5-11.1s-0.4-2.9-4.3-5.2
					c5-2.7,25.2-13.1,27.1-10.9c2.2,2.5,0.2-4-1.6-3.1c-1.6,0.8-23.1,9.8-28,11.8c-2-2.7-1.7-6.1-1.7-6.1s21.2-18.9,19.6-9.4
					c0,0-0.7,3.2-4.7,6.3c-4,3.1,4-1.1,4-1.1s8.6-4.5,3.6-10.6C311.8,222,290.6,231.4,289.7,238.7z M402,210c2-2,11-8.4,11-8.4
					c0-0.6-1-1.6-1-1.6c-2-2-5-2-8,0c-19,14-33,31-41,52c-1,4,0,9,5,9c1.4,0,2.3-1,3.2-1.8c0,0.1-0.1,0.1-0.1,0.2
					c0.5-0.4,0.9-0.6,1.3-1.2C370,259,368,260,366,258c-1-2,1-4,2-6C380,238,389,223,402,210z M508.1,226.8
					c-11.5,15.5-32.2,32.5-32.2,32.5c-3.2-12.6,13-24.6,13-24.6s2.5-3.2-4-7.3C481.2,225,473,242,473,242c-35.6,28.4-36,19-36,19
					c0.3-3,1.1-5.7,2.4-8.2c27.2-1.1,30.3-20.8,30.3-20.8c-0.7-7.5-14.8-6.9-31.3,9.7c-2.8,2.8-4.9,5.3-6.5,7.6
					c-7.7,11.2-2.5,16.2-2.5,16.2c12.7,6.7,33.6-11.1,40.9-18c-3,6.7-6.8,17.6-1.1,19.4c8.3,2.8,43.6-41.7,43.6-41.7
					C513.2,219.9,508.1,226.8,508.1,226.8z M466.2,232c-15.5,19.2-22.3,17.5-24,16.5C450.6,237.4,466.2,232,466.2,232z M379.8,276.7
					c27.5-11.8,54.4-31.8,61.6-52.5c10.8-31.2-20.4-36.2-20.4-36.2s-14.3-7.2-50.8,3.3c-0.9,0.1-1.9,0.4-3.1,0.8
					c-0.5,0.2-0.9,0.4-1.4,0.6c0,0,0,0,0,0l0,0c-10.2,4.3-27.2,17.7-22.4,24.8c6.1,9,7.6,5,7.6,5c-13.3-11.5,21.2-25.6,21.2-25.6
					c24.2-11.8,44.9-5.6,44.9-5.6c48.5,12.4-4.9,56.5-4.9,56.5c-19.9,12.9-35.9,21.3-48.5,26.6c-15.9-2.1-31.1-3.5-45.5-4.3
					c6.9-16.8,32.9-24.5,32.9-24.5c-24.9,4.2-34.4,16.6-37.9,24.2c-74.8-3.3-128.2,9-140.6,12.2c-2.5,0.7-4.9,1.9-6.7,3.8
					c-2.9,3-4.3,7.5,8.3,9.9c0,0-6.1-4,6.7-8.1c38.1-12.3,85.1-14.5,130.4-12c0,0.3-0.1,0.4-0.1,0.4s-5.4,13.7,29.4,11.3
					c8.5-0.6,18.2-2.8,28.1-6.2c61.9,8.2,110,21.2,110,21.2C444.1,289.9,410.9,281.8,379.8,276.7z M316.3,278.2
					c0-0.8,0.1-1.5,0.1-2.2c11.7,0.7,23.3,1.8,34.5,3C322.8,287.9,316.3,278.2,316.3,278.2z"/>
			</defs>
			<clipPath id="SVGID_2_">
				<use xlink:href="#SVGID_1_"  style="overflow:visible;"/>
			</clipPath>
			<g style="clip-path:url(#SVGID_2_);">
				
					<image style="overflow:visible;" width="1755" height="536" xlink:href="ADA05709.png"  transform="matrix(0.24 0 0 0.24 97.5307 179.6107)">
				</image>
			</g>
		</g>
	</g>
</g>
</svg>
