<svg xmlns="http://www.w3.org/2000/svg" xmlns:xlink="http://www.w3.org/1999/xlink" viewBox="0 0 1920 1080"><defs><style>.cls-1{fill:#e2eff2;}.cls-2{fill:url(#Degradado_sin_nombre_64);}.cls-3{fill:url(#Degradado_sin_nombre_64-2);}.cls-4{fill:#ddd;opacity:0.83;}.cls-5{fill:#2f2e41;}.cls-6{fill:#ffb8b8;}.cls-7{fill:#ccc;}.cls-8{fill:#6c63ff;}.cls-9{fill:#fff;}.cls-10{fill:#470f15;}.cls-11{fill:#7f1f2d;}.cls-12{fill:#493e0f;}.cls-13{fill:#b78b69;}.cls-14{fill:#844f24;}.cls-15{fill:#c1a738;}.cls-16{fill:#aa931f;}.cls-17{fill:#ccaf9b;}.cls-18{fill:#f4eee9;}.cls-19{fill:#bdbfe5;}.cls-20{fill:#d3d3d3;}.cls-21{fill:#a8a8a8;}.cls-22{fill:#d8d5d2;}.cls-23{fill:#b7b4b2;}.cls-24{fill:#d65050;}.cls-25{fill:#d3c950;}.cls-26{fill:#50d375;}.cls-27{fill:none;}.cls-28{fill:#232323;stroke:#232323;stroke-miterlimit:10;stroke-width:0.25px;}.cls-29{fill:#b0c5ea;}.cls-30{fill:#9ac5e8;}.cls-31{fill:#dee59a;}.cls-32{fill:#9ae5ac;}.cls-33{fill:#b1e5b4;}.cls-34{fill:#68b4ba;}.cls-35{fill:#6464bc;}.cls-36{fill:#efe8e4;}.cls-37{fill:#7272c4;}.cls-38{fill:#7272d6;}.cls-39{fill:#3f3e3d;}.cls-40{fill:#e55353;}.cls-41{fill:#ba6575;}.cls-42{fill:#5471ba;}.cls-43{fill:#5597e5;}.cls-44{fill:#353535;}.cls-45{fill:#84d394;}.cls-46{fill:#a4c673;}.cls-47{fill:#69b78c;}.cls-48{fill:#3f3d56;}.cls-49{fill:#ffb9b9;}.cls-50{fill:#e6e6e6;}.cls-51{fill:#f2f2f2;}.cls-52{fill:#ff6584;}</style><linearGradient id="Degradado_sin_nombre_64" x1="1709" y1="1020.96" x2="1041.76" y2="-134.73" gradientUnits="userSpaceOnUse"><stop offset="0" stop-color="#dbadf6"/><stop offset="0.02" stop-color="#d3a3f5"/><stop offset="0.09" stop-color="#c18df2"/><stop offset="0.16" stop-color="#b47df0"/><stop offset="0.24" stop-color="#ac74ef"/><stop offset="0.36" stop-color="#aa71ef"/><stop offset="0.51" stop-color="#a676ef"/><stop offset="0.7" stop-color="#9c85f1"/><stop offset="0.9" stop-color="#8a9df3"/><stop offset="1" stop-color="#7facf4"/></linearGradient><linearGradient id="Degradado_sin_nombre_64-2" x1="1709.24" y1="1021.39" x2="1041.5" y2="-135.15" xlink:href="#Degradado_sin_nombre_64"/></defs><title>Mesa de trabajo 1</title><g id="Background"><rect class="cls-1" y="3.49" width="1920" height="1080"/><path class="cls-2" d="M1920,3.49V898c-33.07,25.09-76.09,31.1-115.67,26.6-54-6.14-105.91-28.1-159.17-40.64s-111-14.87-159.06,16.06c-37.61,24.19-65.56,66.26-101.08,94.84-48.71,39.19-109.29,50.78-167.33,46.18s-114.49-24.22-170.58-43.17c-61.82-20.89-125-41.75-178.53-85.21S771.86,798.2,771.31,719.15c-.88-127.81,104.67-227,107.81-354.71,3.1-126-95-239.4-76.76-360.95Z"/><path class="cls-3" d="M1919.5,3.49v885c0,2.49.6,5.86,0,8.29-.09.35.15.88,0,1.2-.47,1-4.75,3.18-5.87,3.93q-4.65,3.1-9.55,5.77a135.84,135.84,0,0,1-21.84,9.47c-60.14,20.07-123.29-.47-181.27-18.1-56-17-116.36-34.18-174.63-17.64-26.6,7.55-49.28,22.38-69.31,41.16-21.22,19.89-39.6,42.61-61.09,62.22-44.75,40.86-103.61,58.39-163.54,56.55-66.5-2-130.16-25.37-192.51-46.45-58.22-19.67-117.13-40.6-166.16-78.78-43.13-33.58-76.42-80.56-92.16-133-16.21-54.08-10-109.51,8.62-162.06,17.63-49.69,43.72-95.78,63.36-144.63,19.76-49.13,30.79-100.21,23.7-153.21-7.31-54.6-29.11-105.76-47.6-157.21-18-50.2-34.16-103.32-27.5-157.27.66-5.36-.84-4.73,3.33-4.73H1920a.5.5,0,0,0,0-1H847.66c-14.42,0-29-.61-43.4,0-.63,0-1.27,0-1.9,0a.49.49,0,0,0-.48.37c-9.59,65.81,14.32,129.45,36.79,190.12,23.81,64.3,47.5,130.73,37.44,200.35-9.38,65-42.42,123.06-68.78,182.26-26.27,59-45.19,121.89-31.88,186.79C788.71,827.61,828.84,885.15,882,923.62,911.76,945.09,945,961,979,974.31c35.47,13.83,71.81,25.66,108,37.47,71.33,23.27,148,42.36,222.45,21.91a213.67,213.67,0,0,0,89.25-50.07c26.38-24.56,48.35-53.93,77.2-75.83,30-22.79,66.53-32.42,103.9-32,38.59.45,76,10.67,112.66,21.74,67,20.22,144.44,47.28,211.29,11.46a126.24,126.24,0,0,0,11.14-6.73c1.64-1.11,4.79-2.45,5.59-4.26,0-.11,0-.27,0-.38a11.16,11.16,0,0,0,0-3V3.49A.5.5,0,0,0,1919.5,3.49Z"/></g><g id="Capa_8" data-name="Capa 8"><ellipse class="cls-4" cx="1005.61" cy="647.08" rx="95.7" ry="33.14"/><circle class="cls-5" cx="1010.5" cy="527.86" r="19.69"/><polygon class="cls-6" points="991.79 654.27 991.27 645.35 1025.45 639.09 1026.22 652.26 991.79 654.27"/><path class="cls-5" d="M993.45,638.82l1,17.22h0l-10.84.63h0l-1.64-28h0A10.86,10.86,0,0,1,993.45,638.82Z"/><polygon class="cls-6" points="1006.66 654.19 1000.98 661.1 971.63 642.49 980.01 632.29 1006.66 654.19"/><path class="cls-5" d="M995,664.41l10.95-13.32h0l8.39,6.89h0l-17.85,21.71h0A10.86,10.86,0,0,1,995,664.41Z"/><path class="cls-5" d="M990.32,622.07l-3.88,18.29a2.92,2.92,0,0,0,2.25,3.46,2.57,2.57,0,0,0,.55.06l38.15.62a2.92,2.92,0,0,0,3-2.87,3.52,3.52,0,0,0,0-.56l-3.34-18.9a2.91,2.91,0,0,0-2.87-2.41H993.17A2.9,2.9,0,0,0,990.32,622.07Z"/><path class="cls-5" d="M996.64,628.51s-37.19-23.34-44.49-10.94c-3.64,6.2-1.82,12.21.91,16.68a25.26,25.26,0,0,0,10.51,9.4l30.16,14.76,10.94-11.67-7.3-6.56Z"/><path class="cls-5" d="M1015.61,624.86s48.13-13.86,38.65,12.4-45.22,16-45.22,16l-3.65-10.94,12.4-8.76Z"/><circle class="cls-6" cx="1010.75" cy="532.35" r="17.91"/><path class="cls-7" d="M1011.69,627.76a96.61,96.61,0,0,1-22.07-2.91l-.22-.06-10-46a16.93,16.93,0,0,1,10.89-19.65,58.65,58.65,0,0,1,37.41-.75h0a17.12,17.12,0,0,1,11.41,20.25L1028,624.75l-.15.08C1023.16,627,1017.35,627.76,1011.69,627.76Z"/><path class="cls-6" d="M998.26,631.33a7.33,7.33,0,0,1,9.38-4.42,8.39,8.39,0,0,1,1.18.54l19.68-17.08,1.78,13.42-19,14.17a7.38,7.38,0,0,1-13.06-6.63Z"/><path class="cls-7" d="M1017,635.05a3.08,3.08,0,0,1-.95-.14,3.23,3.23,0,0,1-2.16-2l-2.37-6.73a3.26,3.26,0,0,1,1-3.58l26.82-16.1-10.58-47.16.27-.06c.11,0,10.94-2.49,15.38,9.34,3.11,8.29,14.61,26.32,13.8,38.5a10.87,10.87,0,0,1-9,10L1019,634.37A3.26,3.26,0,0,1,1017,635.05Z"/><path class="cls-6" d="M1020,629.73a7.34,7.34,0,0,0-9.39-4.42,8.27,8.27,0,0,0-1.17.54L989.8,608.77,988,622.19l19,14.17a7.38,7.38,0,0,0,13.06-6.63Z"/><path class="cls-7" d="M1003.24,635.05a3.26,3.26,0,0,1-2-.68l-32.37-15.83a10.87,10.87,0,0,1-9-10c-.81-12.18,12.88-31.66,16-39.95,4.44-11.83,15.27-9.37,15.38-9.34l.27.06-12.76,48.62,29,14.64a3.26,3.26,0,0,1,1,3.58l-2.37,6.73a3.23,3.23,0,0,1-2.16,2A3.08,3.08,0,0,1,1003.24,635.05Z"/><path class="cls-8" d="M1041.86,642.37H977a5.13,5.13,0,0,1-5.11-5.11V601.52a5.11,5.11,0,0,1,5.11-5.1h64.91a5.11,5.11,0,0,1,5.11,5.1v35.74A5.13,5.13,0,0,1,1041.86,642.37Z"/><circle class="cls-9" cx="1009.41" cy="619.39" r="4.38"/><path class="cls-5" d="M992.65,531.63c-1.06-2.7.68-5.91,3.27-7.21s5.7-1.06,8.46-.2c2.33.72,4.5,1.84,6.77,2.73a15.26,15.26,0,0,0,7.11,1.27,7.18,7.18,0,0,0,5.82-3.86,7.09,7.09,0,0,0-1.25-7.08,13.73,13.73,0,0,0-6.29-4c-5.33-1.88-11.48-1.94-16.43.79s-8.31,8.54-7.29,14.1"/><ellipse class="cls-4" cx="1292.93" cy="952.51" rx="97.08" ry="35.4"/><ellipse class="cls-4" cx="1422.83" cy="629.82" rx="57.93" ry="19.84"/><path class="cls-4" d="M975.55,865.72,1161,974.42a18.27,18.27,0,0,0,18.35.06l241.87-139.65a18.25,18.25,0,0,0,0-31.62L1231.58,694.38a18.24,18.24,0,0,0-18.35.1L975.77,834.42a18.24,18.24,0,0,0-.22,31.3Z"/><ellipse class="cls-10" cx="962.69" cy="861.07" rx="12.86" ry="6.03"/><ellipse class="cls-11" cx="962.69" cy="859.69" rx="12.86" ry="6.03"/><polygon class="cls-12" points="956.45 790.38 961.36 792.15 967.77 790.38 968.93 859.46 962.69 861.18 956.45 859.53 956.45 790.38"/><ellipse class="cls-10" cx="1114.48" cy="958.54" rx="12.86" ry="6.03"/><ellipse class="cls-11" cx="1114.48" cy="957.16" rx="12.86" ry="6.03"/><ellipse class="cls-10" cx="1397.77" cy="839.41" rx="12.86" ry="6.03"/><ellipse class="cls-11" cx="1397.77" cy="838.03" rx="12.86" ry="6.03"/><polygon class="cls-12" points="1108.56 877.74 1113.47 879.73 1119.88 877.74 1121.05 955.72 1114.81 957.66 1108.56 955.8 1108.56 877.74"/><polygon class="cls-12" points="1391.53 709.43 1396.44 712.72 1402.85 709.43 1404.01 837.88 1397.77 841.08 1391.53 838.02 1391.53 709.43"/><path class="cls-13" d="M905.6,714l276.67-159.76a31.48,31.48,0,0,1,31.47,0l221,127.58L1138.82,852.62Z"/><path class="cls-14" d="M1434.76,681.77l0,11.43a8.11,8.11,0,0,1-4,7l-283,163.36a17.61,17.61,0,0,1-17.79-.11L910.89,733.18a10.81,10.81,0,0,1-5.29-9.3V714L1131.22,848.1a15.1,15.1,0,0,0,15.26.1Z"/><polygon class="cls-15" points="933.02 746.33 933.02 778.02 961.28 794.34 961.28 763.42 933.02 746.33"/><polygon class="cls-16" points="961.28 794.34 975.23 785.78 975.23 771.25 961.28 763.42 961.28 794.34"/><polygon class="cls-15" points="1114.48 853.39 1114.48 882.76 1086.63 866.68 1086.63 837.67 1114.48 853.39"/><polygon class="cls-16" points="1128.4 874.75 1114.48 882.76 1114.48 853.39 1128.4 862.51 1128.4 874.75"/><polygon class="cls-17" points="1030.93 690.33 1323.33 521.51 1323.79 617.72 1029.5 787.62 1030.93 690.33"/><polygon class="cls-14" points="1017 780.37 1017 681.77 1030.93 690.33 1029.5 787.62 1017 780.37"/><polygon class="cls-14" points="1017 681.77 1309.41 513.47 1323.33 521.51 1030.93 690.33 1017 681.77"/><polygon class="cls-18" points="1128.4 665.33 1225.88 609.08 1225.88 667.36 1128.4 723.3 1128.4 665.33"/><polygon class="cls-19" points="1128.4 723.3 1126.55 724.4 1126.55 664.29 1224.63 608.14 1225.88 609.08 1128.4 665.33 1128.4 723.3"/><path class="cls-20" d="M1225.88,667.36v19.29a6.31,6.31,0,0,1-3.2,5.49L1136,741.43a6.31,6.31,0,0,1-7.6-1,6.23,6.23,0,0,1-1.85-4.47V724.4l1.85-1.06Z"/><path class="cls-21" d="M1128.4,723.3v17.1a6.23,6.23,0,0,1-1.85-4.47V724.34Z"/><polygon class="cls-22" points="1142.33 673.37 1211.64 633.71 1212.06 664.73 1142.33 705.53 1142.33 673.37"/><polygon class="cls-23" points="1142.33 679.42 1211.74 640.83 1211.64 633.71 1142.33 673.37 1142.33 679.42"/><ellipse class="cls-24" cx="1144.72" cy="675.16" rx="0.5" ry="1"/><ellipse class="cls-25" cx="1145.98" cy="674.53" rx="0.5" ry="1"/><ellipse class="cls-26" cx="1147.31" cy="673.98" rx="0.5" ry="1"/><polygon class="cls-23" points="1161.51 726.88 1161.51 742.11 1189.92 726.17 1189.38 711.03 1161.51 726.88"/><polygon class="cls-21" points="1159.71 728.17 1159.71 746.09 1171.95 752.63 1203.41 734.61 1189.92 726.17 1161.51 742.11 1161.51 726.88 1159.71 728.17"/><polygon class="cls-23" points="1161.51 742.11 1161.51 745.62 1171.95 750.97 1201.84 733.63 1189.92 726.17 1161.51 742.11"/><polygon class="cls-21" points="1161.51 745.62 1192.02 727.65 1189.92 726.17 1161.51 742.11 1161.51 745.62"/><polygon class="cls-22" points="1239.72 729.27 1156.25 777.92 1184.1 794.24 1267.65 745.76 1239.72 729.27"/><line class="cls-27" x1="1168.9" y1="773.14" x2="1192.77" y2="787.13"/><line class="cls-27" x1="1175.84" y1="769.06" x2="1199.71" y2="783.06"/><line class="cls-27" x1="1182.78" y1="764.99" x2="1206.65" y2="778.98"/><line class="cls-27" x1="1189.72" y1="760.92" x2="1213.58" y2="774.91"/><line class="cls-27" x1="1196.66" y1="756.84" x2="1220.52" y2="770.84"/><line class="cls-27" x1="1203.59" y1="752.77" x2="1227.46" y2="766.76"/><line class="cls-27" x1="1210.53" y1="748.7" x2="1234.4" y2="762.69"/><line class="cls-27" x1="1217.47" y1="744.62" x2="1241.34" y2="758.62"/><line class="cls-27" x1="1224.41" y1="740.55" x2="1248.28" y2="754.54"/><line class="cls-27" x1="1231.35" y1="736.48" x2="1255.22" y2="750.47"/><polygon class="cls-27" points="1262.16 746.39 1238.29 732.4 1161.96 777.21 1166.94 780.13 1185.83 791.2 1262.16 746.39"/><polygon class="cls-28" points="1166.94 780.13 1173.88 776.06 1168.9 773.14 1161.96 777.21 1166.94 780.13"/><polygon class="cls-28" points="1180.82 771.99 1187.76 767.91 1182.78 764.99 1175.84 769.06 1180.82 771.99"/><polygon class="cls-28" points="1194.7 763.84 1201.64 759.77 1196.65 756.84 1189.72 760.92 1194.7 763.84"/><polygon class="cls-28" points="1208.58 755.69 1215.52 751.62 1210.53 748.7 1203.59 752.77 1208.58 755.69"/><polygon class="cls-28" points="1222.46 747.54 1229.4 743.47 1224.41 740.55 1217.47 744.62 1222.46 747.54"/><polygon class="cls-28" points="1236.34 739.4 1243.28 735.33 1238.29 732.4 1231.35 736.48 1236.34 739.4"/><polygon class="cls-28" points="1172.78 783.63 1179.71 779.56 1174.73 776.63 1167.79 780.71 1172.78 783.63"/><polygon class="cls-28" points="1178.74 787.13 1185.68 783.06 1180.69 780.13 1173.75 784.21 1178.74 787.13"/><polygon class="cls-28" points="1185.82 791.12 1192.76 787.05 1187.77 784.13 1180.83 788.2 1185.82 791.12"/><polygon class="cls-28" points="1186.65 775.49 1193.59 771.41 1188.61 768.49 1181.67 772.56 1186.65 775.49"/><polygon class="cls-28" points="1200.53 767.34 1207.47 763.26 1202.49 760.34 1195.55 764.41 1200.53 767.34"/><polygon class="cls-28" points="1214.41 759.19 1221.35 755.12 1216.37 752.19 1209.42 756.27 1214.41 759.19"/><polygon class="cls-28" points="1228.29 751.04 1235.23 746.97 1230.24 744.05 1223.3 748.12 1228.29 751.04"/><polygon class="cls-28" points="1193.19 779.14 1200.13 775.07 1195.15 772.15 1188.21 776.22 1193.19 779.14"/><polygon class="cls-28" points="1207.07 771 1214.01 766.92 1209.03 764 1202.09 768.07 1207.07 771"/><polygon class="cls-28" points="1220.95 762.85 1227.89 758.78 1222.9 755.85 1215.96 759.93 1220.95 762.85"/><polygon class="cls-28" points="1234.83 754.7 1241.77 750.63 1236.78 747.71 1229.84 751.78 1234.83 754.7"/><polygon class="cls-28" points="1242.17 742.9 1249.11 738.82 1244.12 735.9 1237.18 739.97 1242.17 742.9"/><polygon class="cls-28" points="1199.71 783.06 1195.55 780.62 1237.18 756.18 1241.34 758.62 1199.71 783.06"/><polygon class="cls-28" points="1244.28 752.19 1248.28 754.54 1255.22 750.47 1251.48 748.28 1244.28 752.19"/><polygon class="cls-28" points="1244.27 744.05 1251.4 740.09 1256.19 742.9 1249.11 746.88 1244.27 744.05"/><g id="Board_2" data-name="Board 2"><path class="cls-4" d="M1667,654.38,1607.15,688a17.05,17.05,0,0,1-16.56.07l-15.52-8.54-160.53-92.68a17,17,0,0,1,0-29.51l62.37-36a17,17,0,0,1,17.26.13l173.19,103.46A17,17,0,0,1,1667,654.38Z"/><g id="Board"><polygon class="cls-18" points="1412.2 343.78 1412.24 531.78 1621.55 652.67 1621.59 464.68 1412.2 343.78"/><path class="cls-19" d="M1629.59,462.32V645.71a4,4,0,0,1-2,3.48l-6,3.48,0-185.67a4,4,0,0,0-2-3.48L1412.2,343.79l7.39-4.28a4,4,0,0,1,4,0l204,119.33A4,4,0,0,1,1629.59,462.32Z"/><polygon class="cls-29" points="1528.55 445.92 1528.55 437.81 1435.5 384.1 1435.5 392.35 1528.55 445.92"/><polygon class="cls-29" points="1575.07 473.56 1575.07 465.46 1533.17 441.15 1533.17 449.41 1575.07 473.56"/><polygon class="cls-30" points="1528.55 524.1 1528.55 516 1435.5 462.28 1435.5 470.54 1528.55 524.1"/><polygon class="cls-31" points="1528.55 552.64 1528.55 544.54 1435.5 490.82 1435.5 499.08 1528.55 552.64"/><polygon class="cls-30" points="1575.07 551.75 1575.07 543.65 1533.17 519.34 1533.17 527.59 1575.07 551.75"/><polygon class="cls-32" points="1545.86 590.43 1545.86 582.33 1503.97 558.01 1503.97 566.27 1545.86 590.43"/><polygon class="cls-32" points="1497.12 562.02 1497.12 553.92 1455.22 529.61 1455.22 537.86 1497.12 562.02"/><polygon class="cls-33" points="1513.29 490.65 1513.29 482.55 1420.24 428.83 1420.24 437.09 1513.29 490.65"/><polygon class="cls-34" points="1598.46 513.08 1598.46 504.97 1458.76 424.54 1458.76 432.8 1598.46 513.08"/><polygon class="cls-33" points="1559.81 518.3 1559.81 510.2 1517.91 485.88 1517.91 494.14 1559.81 518.3"/></g></g><g id="Librera"><polygon class="cls-35" points="1396.87 351.36 1396.87 539.38 1373.57 552.78 1373.57 364.77 1303.82 324.45 1327.09 311.07 1396.87 351.36"/><polygon class="cls-22" points="1373.57 364.77 1373.57 552.78 1350.35 539.34 1280.56 498.73 1280.56 310.72 1373.57 364.77"/><polygon class="cls-23" points="1367.43 367.14 1367.41 388.93 1367.38 413.06 1367.38 418.26 1367.38 420.85 1364.95 419.51 1360.48 417.03 1339.03 405.14 1339.01 405.13 1336.96 404 1330.78 400.57 1330.51 346.22 1367.43 367.14"/><polygon class="cls-23" points="1367.43 427.68 1367.37 481.38 1330.78 461.1 1330.51 406.75 1367.43 427.68"/><polygon class="cls-23" points="1367.43 488.21 1367.37 541.92 1330.78 521.63 1330.51 467.28 1367.43 488.21"/><polygon class="cls-23" points="1323.42 343.29 1323.36 397 1286.76 376.71 1286.5 322.36 1323.42 343.29"/><polygon class="cls-23" points="1323.42 403.82 1323.36 457.53 1286.76 437.24 1286.5 382.89 1323.42 403.82"/><polygon class="cls-23" points="1323.42 464.35 1323.36 518.06 1286.76 497.77 1286.5 443.42 1323.42 464.35"/><polygon class="cls-36" points="1373.57 364.77 1396.87 351.36 1303.63 297.72 1280.37 311.11 1373.57 364.77"/><polygon class="cls-37" points="1330.78 461.1 1367.43 445.92 1367.37 481.38 1330.78 461.1"/><polygon class="cls-37" points="1330.64 400.43 1367.3 385.25 1367.24 420.71 1330.64 400.43"/><polygon class="cls-37" points="1286.63 376.71 1323.29 361.53 1323.23 397 1286.63 376.71"/><polygon class="cls-37" points="1286.63 436.98 1323.29 421.8 1323.23 457.27 1286.63 436.98"/><polygon class="cls-37" points="1286.63 497.26 1323.29 482.07 1323.23 517.54 1286.63 497.26"/><polygon class="cls-37" points="1330.64 521.3 1367.3 506.12 1367.24 541.59 1330.64 521.3"/><polygon class="cls-35" points="1334.27 313.73 1357.73 327.08 1327.71 344.36 1306.21 329.91 1334.27 313.73"/><polygon class="cls-18" points="1306.21 329.91 1306.21 335.07 1327.24 349.27 1327.71 344.36 1306.21 329.91"/><polygon class="cls-38" points="1327.71 344.36 1357.73 327.08 1357.71 333.5 1327.24 349.27 1327.71 344.36"/><polygon class="cls-39" points="1310.17 335.48 1326.97 346.63 1326.99 346 1310.18 334.84 1310.17 335.48"/><polygon class="cls-39" points="1308.32 332.91 1325.13 344.06 1325.14 343.43 1308.34 332.27 1308.32 332.91"/><polygon class="cls-39" points="1306.55 334.33 1323.36 345.49 1323.37 344.85 1306.57 333.69 1306.55 334.33"/><polygon class="cls-35" points="1339.27 312.14 1362.72 325.49 1332.71 342.77 1311.2 328.33 1339.27 312.14"/><polygon class="cls-18" points="1311.2 328.33 1311.2 333.49 1332.24 347.69 1332.71 342.77 1311.2 328.33"/><polygon class="cls-38" points="1332.71 342.77 1362.72 325.49 1362.7 331.91 1332.24 347.69 1332.71 342.77"/><polygon class="cls-39" points="1315.16 333.89 1331.96 345.05 1331.98 344.41 1315.18 333.25 1315.16 333.89"/><polygon class="cls-39" points="1313.32 331.32 1330.12 342.48 1330.14 341.84 1313.33 330.68 1313.32 331.32"/><polygon class="cls-39" points="1311.55 332.75 1328.35 343.9 1328.37 343.27 1311.56 332.11 1311.55 332.75"/><polygon class="cls-40" points="1335.01 304.05 1358.46 317.4 1328.45 334.68 1306.95 320.24 1335.01 304.05"/><polygon class="cls-18" points="1306.95 320.24 1306.95 325.39 1327.98 339.59 1328.45 334.68 1306.95 320.24"/><polygon class="cls-41" points="1328.45 334.68 1358.46 317.4 1358.45 323.82 1327.98 339.59 1328.45 334.68"/><polygon class="cls-39" points="1310.9 325.8 1327.71 336.95 1327.73 336.32 1310.92 325.16 1310.9 325.8"/><polygon class="cls-39" points="1309.06 323.23 1325.86 334.39 1325.88 333.75 1309.08 322.59 1309.06 323.23"/><polygon class="cls-39" points="1307.29 324.65 1324.09 335.81 1324.11 335.17 1307.31 324.01 1307.29 324.65"/><polygon class="cls-33" points="1365.03 333.25 1388.48 346.6 1358.46 363.88 1336.96 349.43 1365.03 333.25"/><polygon class="cls-18" points="1336.96 349.43 1336.96 354.59 1358 368.79 1358.46 363.88 1336.96 349.43"/><polygon class="cls-31" points="1358.46 363.88 1388.48 346.6 1388.46 353.02 1358 368.79 1358.46 363.88"/><polygon class="cls-39" points="1340.92 355 1357.72 366.15 1357.74 365.51 1340.94 354.36 1340.92 355"/><polygon class="cls-39" points="1339.07 352.43 1355.88 363.58 1355.89 362.95 1339.09 351.79 1339.07 352.43"/><polygon class="cls-39" points="1337.31 353.85 1354.11 365.01 1354.13 364.37 1337.32 353.21 1337.31 353.85"/><polygon class="cls-22" points="1373.57 392.43 1373.57 415.05 1367.38 418.26 1367.38 413.06 1367.41 388.93 1373.57 392.43"/><polygon class="cls-42" points="1367.41 388.93 1367.38 413.06 1360.48 417.03 1358.46 418.2 1339.03 405.14 1339.01 405.13 1336.96 403.76 1365.03 387.57 1367.41 388.93"/><polygon class="cls-18" points="1336.96 403.75 1336.96 408.91 1358 423.11 1358.46 418.2 1336.96 403.75"/><polygon class="cls-43" points="1367.38 413.06 1367.38 418.26 1364.95 419.51 1357.99 423.11 1358.46 418.2 1360.48 417.03 1367.38 413.06"/><polygon class="cls-39" points="1340.92 409.31 1357.72 420.47 1357.74 419.83 1340.94 408.68 1340.92 409.31"/><polygon class="cls-39" points="1339.07 406.75 1355.88 417.9 1355.89 417.27 1339.09 406.11 1339.07 406.75"/><polygon class="cls-39" points="1337.31 408.17 1354.11 419.33 1354.13 418.69 1337.32 407.54 1337.31 408.17"/><polygon class="cls-22" points="1329.85 493.2 1329.85 515.82 1323.66 519.03 1323.66 513.84 1323.69 489.7 1329.85 493.2"/><polygon class="cls-40" points="1323.69 489.7 1323.66 513.84 1316.77 517.8 1314.74 518.97 1295.31 505.92 1295.29 505.91 1293.24 504.53 1321.31 488.35 1323.69 489.7"/><polygon class="cls-18" points="1293.25 504.53 1293.25 509.69 1314.28 523.89 1314.75 518.97 1293.25 504.53"/><polygon class="cls-41" points="1323.66 513.84 1323.66 519.03 1321.24 520.28 1314.28 523.89 1314.74 518.97 1316.77 517.8 1323.66 513.84"/><polygon class="cls-39" points="1297.2 510.09 1314.01 521.25 1314.02 520.61 1297.22 509.45 1297.2 510.09"/><polygon class="cls-39" points="1295.36 507.52 1312.16 518.68 1312.18 518.04 1295.37 506.88 1295.36 507.52"/><polygon class="cls-39" points="1293.59 508.95 1310.39 520.11 1310.41 519.47 1293.6 508.31 1293.59 508.95"/></g><g id="Planta"><g id="mesa_de_noche" data-name="mesa de noche"><path class="cls-4" d="M1676.32,752.16l52.44,30.35a4.33,4.33,0,0,0,4.19.07l61.26-32.77a4,4,0,0,0,.2-7l-57.75-35a4.27,4.27,0,0,0-4.61.1l-56,37.38A4,4,0,0,0,1676.32,752.16Z"/><polygon class="cls-44" points="1807.12 731.87 1811.1 742.59 1808.57 742.9 1802.23 735.48 1807.12 731.87"/><polygon class="cls-44" points="1669.35 732.79 1666.8 743.91 1669.35 743.91 1674.67 735.77 1669.35 732.79"/><polygon class="cls-44" points="1738.33 768.14 1737.23 779.48 1734.8 778.72 1732.32 769.39 1738.33 768.14"/><polygon class="cls-22" points="1668.55 733.93 1738.29 694.91 1808.04 733.93 1738.29 772.99 1668.55 733.93"/><polygon class="cls-23" points="1738.29 772.99 1738.33 668.86 1808.04 629.82 1808.04 733.93 1738.29 772.99"/><polygon class="cls-22" points="1668.55 733.9 1668.55 629.85 1738.33 668.84 1738.29 772.96 1668.55 733.9"/><polygon class="cls-19" points="1833.77 616.2 1833.77 623.93 1738.33 676.62 1645.3 621.56 1645.3 614.86 1738.98 563.93 1833.77 616.2"/><polygon class="cls-4" points="1833.77 616.2 1738.33 668.84 1645.3 614.86 1738.3 563.55 1738.98 563.93 1833.77 616.2"/><polygon class="cls-41" points="1833.77 616.2 1833.77 623.93 1738.33 676.62 1738.33 668.84 1833.77 616.2"/><polygon class="cls-41" points="1738.33 668.84 1738.33 676.62 1645.3 621.56 1645.3 614.86 1738.33 668.84"/><polygon class="cls-23" points="1683.17 688.36 1723.8 711.08 1723.8 719.07 1683.08 695.16 1683.17 688.36"/><polygon class="cls-23" points="1683.17 675.52 1723.8 698.25 1723.8 706.24 1683.08 682.33 1683.17 675.52"/></g><polygon class="cls-13" points="1738.33 588.83 1738.18 640.88 1761.48 628 1784.86 562.72 1738.33 588.83"/><polygon class="cls-17" points="1738.18 640.88 1714.92 627.66 1691.81 562.81 1738.33 588.83 1738.18 640.88"/><polygon class="cls-41" points="1684.92 558.95 1684.92 569.31 1738.18 596.45 1796.14 563.93 1796.14 556.41 1738.18 529.28 1684.92 558.95"/><polygon class="cls-4" points="1738.18 543.28 1714.17 557.52 1738.18 569.74 1761.52 554.98 1738.18 543.28"/><path class="cls-45" d="M1742.29,561.14s-30.43-104.64,2.43-90.56,8.36,86.47,8.36,86.47Z"/><path class="cls-34" d="M1719.85,559s-23.78-76.19,2.85-65.65,6,62.79,6,62.79Z"/><path class="cls-46" d="M1726.47,562.22s34.32-72.31,6.46-65.4-14.8,61.4-14.8,61.4Z"/><path class="cls-47" d="M1734.5,565.74s-24.17-45.92,2.51-39.45,6.31,37.77,6.31,37.77Z"/></g><g id="persona_1" data-name="persona 1"><polygon class="cls-6" points="1417.33 625.37 1425.22 625.37 1428.96 594.2 1417.33 594.2 1417.33 625.37"/><path class="cls-5" d="M1440.42,632.87h-24.78v-9.81h15.21a9.69,9.69,0,0,1,9.57,9.81Z"/><polygon class="cls-6" points="1387.76 625.37 1395.64 625.37 1399.39 594.2 1387.76 594.2 1387.76 625.37"/><path class="cls-5" d="M1410.84,632.87h-24.77v-9.81h15.2a9.69,9.69,0,0,1,9.57,9.81Z"/><path class="cls-6" d="M1388.72,532.53a7.19,7.19,0,0,0,1.33-10.77l5.19-75.52-15,1.49-.41,73.95a7.24,7.24,0,0,0,.28,10.06,6.81,6.81,0,0,0,8.56.79Z"/><path class="cls-5" d="M1417.57,609.67a2.93,2.93,0,0,1-2.87-2.62l-4.59-39.29a2.24,2.24,0,0,0-4.45-.08l-5.77,37.62a2.91,2.91,0,0,1-2.86,2.5h-9.36a2.93,2.93,0,0,1-2.89-3v0l4.46-83.4a2.94,2.94,0,0,1,2.48-2.92l34.72-5.17a2.9,2.9,0,0,1,3.27,2.52,3.15,3.15,0,0,1,0,.44l-.6,90a2.94,2.94,0,0,1-2.76,2.94l-8.67.42Z"/><path class="cls-48" d="M1399.57,524.56a28.5,28.5,0,0,1-9.79-1.79,2.91,2.91,0,0,1-1.87-2.64c-.3-6.81-2.05-41.89-7.16-63.28a22.17,22.17,0,0,1,8.13-22.79l.84-.6a20.32,20.32,0,0,1,20.18-1.62A21.82,21.82,0,0,1,1422.35,449l8.32,63.32a3,3,0,0,1-.6,2.24,2.83,2.83,0,0,1-2,1.1c-2.88.3-8.86,1.44-16.51,5.8A24.1,24.1,0,0,1,1399.57,524.56Z"/><path class="cls-48" d="M1389.4,472.07l-13.69-3.8a3,3,0,0,1-2-3.64l4.81-18.2a8,8,0,0,1,9.78-5.75,8.16,8.16,0,0,1,5.87,8.34l-1.09,20.35a2.92,2.92,0,0,1-3,2.8A2.51,2.51,0,0,1,1389.4,472.07Z"/><ellipse class="cls-6" cx="1404.64" cy="407.05" rx="15.79" ry="16.19"/><path class="cls-6" d="M1461.86,438.86a6.68,6.68,0,0,0-.15,1.08l-27.62,16.34-6.71-4-7.16,9.6,14.36,10.5,31.51-25.49a6.69,6.69,0,0,0,8.67-4.09,7,7,0,0,0-4-8.89,6.71,6.71,0,0,0-8.67,4.09C1462,438.31,1461.93,438.58,1461.86,438.86Z"/><path class="cls-48" d="M1431.8,457.07,1419.9,465a2.85,2.85,0,0,1-4-.87l-10-15.82a8.3,8.3,0,0,1,2.35-11.3,7.83,7.83,0,0,1,10,1.08l14,14.41a3,3,0,0,1,0,4.2A3.6,3.6,0,0,1,1431.8,457.07Z"/><path class="cls-5" d="M1393.47,419.86a5.07,5.07,0,0,0,8.8-2.9,5.91,5.91,0,0,0,0-1c-.2-1.94-1.3-3.71-1-5.77a3,3,0,0,1,.54-1.41c2.34-3.23,7.86,1.44,10.07-1.48,1.36-1.79-.24-4.61.8-6.61,1.38-2.64,5.46-1.33,8-2.78,2.85-1.61,2.67-6.08.8-8.8a13.36,13.36,0,0,0-10.23-5.34,26.85,26.85,0,0,0-11.57,2.31c-4.19,1.68-8.35,4-10.93,7.77-3.14,4.6-3.44,10.78-1.87,16.15C1387.8,413.24,1391.06,417.24,1393.47,419.86Z"/></g><path class="cls-6" d="M1320.22,789.81l-1.91,9.31a7.7,7.7,0,0,0,10.1,8.8h0a7.69,7.69,0,0,0,4.82-9.44l-2.57-8.67,23.22-67.91h-19.73Z"/><circle class="cls-6" cx="1299.32" cy="636.57" r="18"/><path class="cls-6" d="M1296.42,668.49l23.8-2.9c-5.46-6.85-7.53-14-5.81-21.48l-21.48,2.32Z"/><path class="cls-8" d="M1266.81,768.92l56.31-12.77c12-9.36,19.85-27.93,25.89-50.38,4.4-16.36-3.51-33.78-19-40.53l-1.12-.46-12.69-5-20.9,1.74-7.45,2a8.47,8.47,0,0,0-6.14,6.9C1271.64,707.24,1265,741.35,1266.81,768.92Z"/><polygon class="cls-8" points="1331.24 732.93 1356.21 732.93 1348.08 684.17 1331.24 685.91 1331.24 732.93"/><path class="cls-5" d="M1247.07,944.22h15.1l31.63-111.16L1306,944.22h17.69l7-178.21c-2.65-13.67-2.6-30-1.16-47.6,12.45-8.71,7.89-29.4,9.27-50.18a.82.82,0,0,0-.18-.56l-8-4.17a.79.79,0,0,0-1.38.58c-.2,14.53,3.72,31.81-2.59,43.31-6.85-23.43-15.78-43.09-33.17-47.48a1.85,1.85,0,0,0-1,0l-3.24.92a1.93,1.93,0,0,0-1.32,2.38,1.91,1.91,0,0,0,.86,1.11c15.9,9.83,26.18,26.28,26.83,54.07-12.37,17.52-24.42,27.88-46.12,40.63a8.1,8.1,0,0,0-3.93,6.15Z"/><path class="cls-5" d="M1301.65,652.91l12.76-2.41,7.59-13a17.22,17.22,0,0,0-2-20.19h0a17.21,17.21,0,0,0-15.3-5.59l-16.53,2.36a10.93,10.93,0,0,0-9.27,12.36v.07l11.14,1.9Z"/><path class="cls-5" d="M1229.4,963.67H1256a8.74,8.74,0,0,0,8.74-8.75,8.9,8.9,0,0,0-.09-1.26L1263,942.22l-12.06-.89-24,11.21a5.85,5.85,0,0,0-3.34,5.84h0A5.84,5.84,0,0,0,1229.4,963.67Z"/><path class="cls-5" d="M1289.77,963.67h26.59a8.74,8.74,0,0,0,8.74-8.75,8.9,8.9,0,0,0-.09-1.26l-1.67-11.44-12.06-.89-24,11.21a5.85,5.85,0,0,0-3.34,5.84h0A5.84,5.84,0,0,0,1289.77,963.67Z"/><path class="cls-49" d="M1239.25,768.45l-11.5,4a8.14,8.14,0,0,0-2.36,14.08h0a8.14,8.14,0,0,0,9.43.44l10.48-6.75,35.8-36.38,5.54-42.76a32.57,32.57,0,0,0-11.48-29.24h0L1263.49,737Z"/><path class="cls-8" d="M1263.91,724.22h25.54l-.58-61h0A29.44,29.44,0,0,0,1266.63,690Z"/><ellipse class="cls-6" cx="1294.07" cy="639.01" rx="3.16" ry="3.79"/><path class="cls-50" d="M1097.55,788.47a108.74,108.74,0,0,1,9-34.28c1.36-3,2.84-6,4.47-8.87a.67.67,0,0,0-.27-.9.66.66,0,0,0-.87.23,110.39,110.39,0,0,0-12.26,33.81q-.91,5-1.38,10c-.08.85,1.24.84,1.32,0Z"/><circle class="cls-8" cx="1114.21" cy="739.06" r="8.38"/><path class="cls-50" d="M1098.41,788.69a70.39,70.39,0,0,1,5.83-22.24q1.32-2.94,2.9-5.75a.43.43,0,0,0-.74-.43,71.43,71.43,0,0,0-8,21.93q-.6,3.22-.9,6.49C1097.5,789.24,1098.36,789.24,1098.41,788.69Z"/><circle class="cls-8" cx="1109.22" cy="756.64" r="5.44"/><path class="cls-50" d="M1097.33,788.18a70.31,70.31,0,0,1-9.08-21.12q-.78-3.13-1.26-6.32a.42.42,0,0,0-.49-.35.43.43,0,0,0-.36.46,71.78,71.78,0,0,0,7.22,22.19c1,1.93,2.11,3.83,3.29,5.67.3.46,1-.07.68-.53Z"/><circle class="cls-8" cx="1086.14" cy="756.26" r="5.44" transform="translate(-6.59 9.56) rotate(-0.5)"/><path class="cls-51" d="M1080.64,793V782.31a4,4,0,0,1,4-4h24.93a4,4,0,0,1,4,4V793a4,4,0,0,1-4,4h-24.93A4,4,0,0,1,1080.64,793Z"/><path class="cls-52" d="M1362.81,655.07c0,4.79-3.89,7-8.68,7s-8.69-2.18-8.69-7,1.93-10.4,8.69-8.47C1360.88,643.71,1362.81,650.27,1362.81,655.07Z"/><path class="cls-48" d="M1360.13,643.46c3-2.47.65-7.52-3.12-6.55a3,3,0,0,0-1.36.73c-2.32,2.18-2.68,7.78-2.68,7.78A10.27,10.27,0,0,0,1360.13,643.46Z"/><path class="cls-52" d="M941.7,625.93c0,4.79-3.88,7-8.68,7s-8.69-2.18-8.69-7,1.93-10.4,8.69-8.47C939.77,614.57,941.7,621.13,941.7,625.93Z"/><path class="cls-48" d="M939,614.32c3-2.47.65-7.52-3.12-6.55a3,3,0,0,0-1.36.72c-2.32,2.19-2.67,7.79-2.67,7.79A10.25,10.25,0,0,0,939,614.32Z"/><path class="cls-52" d="M1364.58,463.18c0,4.79-3.89,7-8.69,7s-8.68-2.18-8.68-7,1.93-10.4,8.68-8.47C1362.65,451.82,1364.58,458.38,1364.58,463.18Z"/><path class="cls-48" d="M1361.9,451.57c3-2.47.65-7.52-3.13-6.55a3.06,3.06,0,0,0-1.36.73c-2.31,2.18-2.67,7.78-2.67,7.78A10.27,10.27,0,0,0,1361.9,451.57Z"/></g></svg>