<svg xmlns="http://www.w3.org/2000/svg" xmlns:xlink="http://www.w3.org/1999/xlink" viewBox="0 0 1149.46 1070.91"><defs><style>.cls-1{fill:url(#Degradado_sin_nombre_64);}.cls-2{fill:url(#Degradado_sin_nombre_64-2);}.cls-18,.cls-3{fill:#ddd;}.cls-3{opacity:0.83;}.cls-4{fill:#2f2e41;}.cls-5{fill:#ffb8b8;}.cls-6{fill:#ccc;}.cls-7{fill:#6c63ff;}.cls-8{fill:#fff;}.cls-9{fill:#470f15;}.cls-10{fill:#7f1f2d;}.cls-11{fill:#493e0f;}.cls-12{fill:#b78b69;}.cls-13{fill:#844f24;}.cls-14{fill:#c1a738;}.cls-15{fill:#aa931f;}.cls-16{fill:#ccaf9b;}.cls-17{fill:#f4eee9;}.cls-19{fill:#bdbfe5;}.cls-20{fill:#d3d3d3;}.cls-21{fill:#a8a8a8;}.cls-22{fill:#d8d5d2;}.cls-23{fill:#b7b4b2;}.cls-24{fill:#d65050;}.cls-25{fill:#d3c950;}.cls-26{fill:#50d375;}.cls-27{fill:none;}.cls-28{fill:#232323;stroke:#232323;stroke-miterlimit:10;stroke-width:0.25px;}.cls-29{fill:#b0c5ea;}.cls-30{fill:#9ac5e8;}.cls-31{fill:#dee59a;}.cls-32{fill:#9ae5ac;}.cls-33{fill:#b1e5b4;}.cls-34{fill:#68b4ba;}.cls-35{fill:#6464bc;}.cls-36{fill:#efe8e4;}.cls-37{fill:#7272c4;}.cls-38{fill:#7272d6;}.cls-39{fill:#3f3e3d;}.cls-40{fill:#e55353;}.cls-41{fill:#ba6575;}.cls-42{fill:#5471ba;}.cls-43{fill:#5597e5;}.cls-44{fill:#353535;}.cls-45{fill:#84d394;}.cls-46{fill:#a4c673;}.cls-47{fill:#69b78c;}.cls-48{fill:#3f3d56;}.cls-49{fill:#ffb9b9;}.cls-50{fill:#e6e6e6;}.cls-51{fill:#f2f2f2;}.cls-52{fill:#ff6584;}</style><linearGradient id="Degradado_sin_nombre_64" x1="1715.34" y1="1028.88" x2="1036.31" y2="-147.23" gradientUnits="userSpaceOnUse"><stop offset="0" stop-color="#dbadf6"/><stop offset="0.02" stop-color="#d3a3f5"/><stop offset="0.09" stop-color="#c18df2"/><stop offset="0.16" stop-color="#b47df0"/><stop offset="0.24" stop-color="#ac74ef"/><stop offset="0.36" stop-color="#aa71ef"/><stop offset="0.51" stop-color="#a676ef"/><stop offset="0.7" stop-color="#9c85f1"/><stop offset="0.9" stop-color="#8a9df3"/><stop offset="1" stop-color="#7facf4"/></linearGradient><linearGradient id="Degradado_sin_nombre_64-2" x1="1715.61" y1="1029.37" x2="1036.06" y2="-147.66" xlink:href="#Degradado_sin_nombre_64"/></defs><title>landingPageSolisDev</title><g id="Background"><path class="cls-1" d="M1920-12.16V909.33c-33.07,25.85-76.09,32-115.67,27.4-54-6.32-105.91-28.94-159.17-41.86s-111-15.32-159.06,16.54c-37.61,24.92-65.56,68.26-101.08,97.7-48.71,40.37-109.29,52.31-167.33,47.57s-114.49-25-170.58-44.47c-61.82-21.52-125-43-178.53-87.78S771.86,806.5,771.31,725.07c-.88-131.66,104.67-233.8,107.81-365.4,3.1-129.84-95-246.62-76.76-371.83Z" transform="translate(-771.11 12.93)"/><path class="cls-2" d="M1919.5-12.16V905.65c0,4.43.23,3.43-4.32,6.65-53.22,37.75-121,26-179.26,8.88s-117-40.93-178.76-34.8c-28.47,2.83-55.74,12.62-78.71,29.82-22.7,17-41,38.95-60.15,59.68-20.31,22-42,42.21-68.72,56.21s-56.31,21.76-86.28,24.19c-65.25,5.31-129.13-14.56-190.06-35.52-58.08-20-118-38.74-170.21-71.86C854.65,918.21,815.67,874.68,792.78,822c-23.4-53.9-26.19-112.44-11.39-169,13.63-52.14,38.87-100.12,60.28-149.28,21.14-48.54,38.64-99.52,38-153.1-.66-56.21-19.47-110-38.25-162.3S802.26,82.53,800.69,26.39c-.18-6.4-.11-12.82.24-19.22.16-2.92.38-5.85.66-8.77.13-1.31.2-9.58.78-10.06.19-.15.82.07,1,0,1.84-.6,4.92,0,6.84,0H1920a.5.5,0,0,0,0-1H847.66c-14.42,0-29-.61-43.4,0-.63,0-1.27,0-1.9,0a.49.49,0,0,0-.48.37c-9.61,67.89,14.42,133.63,37,196.49,23.94,66.58,47.41,135.18,37.05,206.94-9.68,67-43,127-69.37,188.31S761.92,705.83,776,772.73c13.88,66,54.14,125,108.36,164.65,30,21.93,63.6,38.23,98.06,51.87,36.26,14.36,73.38,26.9,110.39,39.18,71.67,23.77,149.45,42.26,223.7,18.53,33.87-10.83,63.13-30.11,88.1-55.23,25.94-26.09,48.31-56.64,78.77-77.85,67.19-46.8,150.07-23.58,221.45-1.19,67.85,21.27,149.92,45.9,213.17-1.2,3.24-2.42,2.52-3.34,2.52-7.17V-12.16A.5.5,0,0,0,1919.5-12.16Z" transform="translate(-771.11 12.93)"/></g><g id="Capa_8" data-name="Capa 8"><ellipse class="cls-3" cx="234.5" cy="660.01" rx="95.7" ry="33.14"/><circle class="cls-4" cx="239.39" cy="540.79" r="19.69"/><polygon class="cls-5" points="220.68 667.2 220.16 658.28 254.34 652.01 255.11 665.19 220.68 667.2"/><path class="cls-4" d="M993.45,638.82l1,17.22h0l-10.84.63h0l-1.64-28h0A10.86,10.86,0,0,1,993.45,638.82Z" transform="translate(-771.11 12.93)"/><polygon class="cls-5" points="235.54 667.12 229.87 674.03 200.52 655.42 208.9 645.22 235.54 667.12"/><path class="cls-4" d="M995,664.41l10.95-13.32h0l8.39,6.89h0l-17.85,21.71h0A10.86,10.86,0,0,1,995,664.41Z" transform="translate(-771.11 12.93)"/><path class="cls-4" d="M990.32,622.07l-3.88,18.29a2.92,2.92,0,0,0,2.25,3.46,2.57,2.57,0,0,0,.55.06l38.15.62a2.92,2.92,0,0,0,3-2.87,3.52,3.52,0,0,0,0-.56l-3.34-18.9a2.91,2.91,0,0,0-2.87-2.41H993.17A2.9,2.9,0,0,0,990.32,622.07Z" transform="translate(-771.11 12.93)"/><path class="cls-4" d="M996.64,628.51s-37.19-23.34-44.49-10.94c-3.64,6.2-1.82,12.21.91,16.68a25.26,25.26,0,0,0,10.51,9.4l30.16,14.76,10.94-11.67-7.3-6.56Z" transform="translate(-771.11 12.93)"/><path class="cls-4" d="M1015.61,624.86s48.13-13.86,38.65,12.4-45.22,16-45.22,16l-3.65-10.94,12.4-8.76Z" transform="translate(-771.11 12.93)"/><circle class="cls-5" cx="239.64" cy="545.28" r="17.91"/><path class="cls-6" d="M1011.69,627.76a96.61,96.61,0,0,1-22.07-2.91l-.22-.06-10-46a16.93,16.93,0,0,1,10.89-19.65,58.65,58.65,0,0,1,37.41-.75h0a17.12,17.12,0,0,1,11.41,20.25L1028,624.75l-.15.08C1023.16,627,1017.35,627.76,1011.69,627.76Z" transform="translate(-771.11 12.93)"/><path class="cls-5" d="M998.26,631.33a7.33,7.33,0,0,1,9.38-4.42,8.39,8.39,0,0,1,1.18.54l19.68-17.08,1.78,13.42-19,14.17a7.38,7.38,0,0,1-13.06-6.63Z" transform="translate(-771.11 12.93)"/><path class="cls-6" d="M1017,635.05a3.08,3.08,0,0,1-.95-.14,3.23,3.23,0,0,1-2.16-2l-2.37-6.73a3.26,3.26,0,0,1,1-3.58l26.82-16.1-10.58-47.16.27-.06c.11,0,10.94-2.49,15.38,9.34,3.11,8.29,14.61,26.32,13.8,38.5a10.87,10.87,0,0,1-9,10L1019,634.37A3.26,3.26,0,0,1,1017,635.05Z" transform="translate(-771.11 12.93)"/><path class="cls-5" d="M1020,629.73a7.34,7.34,0,0,0-9.39-4.42,8.27,8.27,0,0,0-1.17.54L989.8,608.77,988,622.19l19,14.17a7.38,7.38,0,0,0,13.06-6.63Z" transform="translate(-771.11 12.93)"/><path class="cls-6" d="M1003.24,635.05a3.26,3.26,0,0,1-2-.68l-32.37-15.83a10.87,10.87,0,0,1-9-10c-.81-12.18,12.88-31.66,16-39.95,4.44-11.83,15.27-9.37,15.38-9.34l.27.06-12.76,48.62,29,14.64a3.26,3.26,0,0,1,1,3.58l-2.37,6.73a3.23,3.23,0,0,1-2.16,2A3.08,3.08,0,0,1,1003.24,635.05Z" transform="translate(-771.11 12.93)"/><path class="cls-7" d="M1041.86,642.37H977a5.13,5.13,0,0,1-5.11-5.11V601.52a5.11,5.11,0,0,1,5.11-5.1h64.91a5.11,5.11,0,0,1,5.11,5.1v35.74A5.13,5.13,0,0,1,1041.86,642.37Z" transform="translate(-771.11 12.93)"/><circle class="cls-8" cx="238.3" cy="632.32" r="4.38"/><path class="cls-4" d="M992.65,531.63c-1.06-2.7.68-5.91,3.27-7.21s5.7-1.06,8.46-.2c2.33.72,4.5,1.84,6.77,2.73a15.26,15.26,0,0,0,7.11,1.27,7.18,7.18,0,0,0,5.82-3.86,7.09,7.09,0,0,0-1.25-7.08,13.73,13.73,0,0,0-6.29-4c-5.33-1.88-11.48-1.94-16.43.79s-8.31,8.54-7.29,14.1" transform="translate(-771.11 12.93)"/><ellipse class="cls-3" cx="521.82" cy="965.44" rx="97.08" ry="35.4"/><ellipse class="cls-3" cx="651.72" cy="642.75" rx="57.93" ry="19.84"/><path class="cls-3" d="M975.55,865.72,1161,974.42a18.27,18.27,0,0,0,18.35.06l241.87-139.65a18.25,18.25,0,0,0,0-31.62L1231.58,694.38a18.24,18.24,0,0,0-18.35.1L975.77,834.42a18.24,18.24,0,0,0-.22,31.3Z" transform="translate(-771.11 12.93)"/><ellipse class="cls-9" cx="191.58" cy="874" rx="12.86" ry="6.03"/><ellipse class="cls-10" cx="191.58" cy="872.62" rx="12.86" ry="6.03"/><polygon class="cls-11" points="185.34 803.32 190.25 805.08 196.66 803.32 197.82 872.39 191.58 874.11 185.34 872.46 185.34 803.32"/><ellipse class="cls-9" cx="343.37" cy="971.47" rx="12.86" ry="6.03"/><ellipse class="cls-10" cx="343.37" cy="970.09" rx="12.86" ry="6.03"/><ellipse class="cls-9" cx="626.66" cy="852.34" rx="12.86" ry="6.03"/><ellipse class="cls-10" cx="626.66" cy="850.96" rx="12.86" ry="6.03"/><polygon class="cls-11" points="337.45 890.67 342.36 892.66 348.77 890.67 349.94 968.64 343.69 970.59 337.45 968.73 337.45 890.67"/><polygon class="cls-11" points="620.42 722.36 625.33 725.65 631.74 722.36 632.9 850.81 626.66 854.01 620.42 850.95 620.42 722.36"/><path class="cls-12" d="M905.6,714l276.67-159.76a31.48,31.48,0,0,1,31.47,0l221,127.58L1138.82,852.62Z" transform="translate(-771.11 12.93)"/><path class="cls-13" d="M1434.76,681.77l0,11.43a8.11,8.11,0,0,1-4,7l-283,163.36a17.61,17.61,0,0,1-17.79-.11L910.89,733.18a10.81,10.81,0,0,1-5.29-9.3V714L1131.22,848.1a15.1,15.1,0,0,0,15.26.1Z" transform="translate(-771.11 12.93)"/><polygon class="cls-14" points="161.91 759.26 161.91 790.95 190.17 807.27 190.17 776.35 161.91 759.26"/><polygon class="cls-15" points="190.17 807.27 204.12 798.71 204.12 784.18 190.17 776.35 190.17 807.27"/><polygon class="cls-14" points="343.37 866.32 343.37 895.69 315.52 879.61 315.52 850.6 343.37 866.32"/><polygon class="cls-15" points="357.29 887.68 343.37 895.69 343.37 866.32 357.29 875.44 357.29 887.68"/><polygon class="cls-16" points="259.81 703.26 552.22 534.44 552.68 630.64 258.39 800.55 259.81 703.26"/><polygon class="cls-13" points="245.89 793.3 245.89 694.7 259.81 703.26 258.39 800.55 245.89 793.3"/><polygon class="cls-13" points="245.89 694.7 538.29 526.4 552.22 534.44 259.81 703.26 245.89 694.7"/><polygon class="cls-17" points="357.29 678.26 454.77 622.01 454.77 680.29 357.29 736.23 357.29 678.26"/><path class="cls-18" d="M1124.9,731.67" transform="translate(-771.11 12.93)"/><polygon class="cls-19" points="357.29 736.23 355.44 737.33 355.44 677.22 453.52 621.07 454.77 622.01 357.29 678.26 357.29 736.23"/><path class="cls-20" d="M1225.88,667.36v19.29a6.31,6.31,0,0,1-3.2,5.49L1136,741.43a6.31,6.31,0,0,1-7.6-1,6.23,6.23,0,0,1-1.85-4.47V724.4l1.85-1.06Z" transform="translate(-771.11 12.93)"/><path class="cls-21" d="M1128.4,723.3v17.1a6.23,6.23,0,0,1-1.85-4.47V724.34Z" transform="translate(-771.11 12.93)"/><polygon class="cls-22" points="371.22 686.3 440.53 646.64 440.95 677.65 371.22 718.46 371.22 686.3"/><polygon class="cls-23" points="371.22 692.35 440.63 653.76 440.53 646.64 371.22 686.3 371.22 692.35"/><ellipse class="cls-24" cx="373.61" cy="688.09" rx="0.5" ry="1"/><ellipse class="cls-25" cx="374.87" cy="687.46" rx="0.5" ry="1"/><ellipse class="cls-26" cx="376.2" cy="686.91" rx="0.5" ry="1"/><polygon class="cls-23" points="390.4 739.8 390.4 755.04 418.81 739.1 418.26 723.96 390.4 739.8"/><polygon class="cls-21" points="388.6 741.1 388.6 759.02 400.83 765.56 432.3 747.54 418.81 739.1 390.4 755.04 390.4 739.8 388.6 741.1"/><polygon class="cls-23" points="390.4 755.04 390.4 758.55 400.83 763.9 430.73 746.56 418.81 739.1 390.4 755.04"/><path class="cls-12" d="M1198.57,721.3" transform="translate(-771.11 12.93)"/><polygon class="cls-21" points="390.4 758.55 420.91 740.58 418.81 739.1 390.4 755.04 390.4 758.55"/><polygon class="cls-22" points="468.61 742.21 385.14 790.85 412.99 807.17 496.54 758.69 468.61 742.21"/><line class="cls-27" x1="397.79" y1="786.07" x2="421.66" y2="800.06"/><line class="cls-27" x1="404.73" y1="781.99" x2="428.59" y2="795.99"/><line class="cls-27" x1="411.67" y1="777.92" x2="435.53" y2="791.91"/><line class="cls-27" x1="418.6" y1="773.85" x2="442.47" y2="787.84"/><line class="cls-27" x1="425.54" y1="769.77" x2="449.41" y2="783.77"/><line class="cls-27" x1="432.48" y1="765.7" x2="456.35" y2="779.69"/><line class="cls-27" x1="439.42" y1="761.63" x2="463.29" y2="775.62"/><line class="cls-27" x1="446.36" y1="757.55" x2="470.23" y2="771.55"/><line class="cls-27" x1="453.3" y1="753.48" x2="477.17" y2="767.47"/><line class="cls-27" x1="460.24" y1="749.41" x2="484.11" y2="763.4"/><polygon class="cls-27" points="491.05 759.33 467.18 745.33 390.85 790.14 395.83 793.06 414.72 804.13 491.05 759.33"/><polygon class="cls-28" points="395.83 793.06 402.77 788.99 397.79 786.07 390.85 790.14 395.83 793.06"/><polygon class="cls-28" points="409.71 784.92 416.65 780.84 411.67 777.92 404.73 781.99 409.71 784.92"/><polygon class="cls-28" points="423.59 776.77 430.53 772.7 425.54 769.77 418.61 773.85 423.59 776.77"/><polygon class="cls-28" points="437.47 768.62 444.41 764.55 439.42 761.63 432.48 765.7 437.47 768.62"/><polygon class="cls-28" points="451.35 760.48 458.29 756.4 453.3 753.48 446.36 757.55 451.35 760.48"/><polygon class="cls-28" points="465.23 752.33 472.17 748.25 467.18 745.33 460.24 749.41 465.23 752.33"/><polygon class="cls-28" points="401.67 796.56 408.6 792.49 403.62 789.57 396.68 793.64 401.67 796.56"/><polygon class="cls-28" points="407.63 800.06 414.57 795.99 409.58 793.06 402.64 797.14 407.63 800.06"/><polygon class="cls-28" points="414.71 804.05 421.65 799.98 416.66 797.05 409.72 801.13 414.71 804.05"/><polygon class="cls-28" points="415.54 788.41 422.48 784.34 417.5 781.42 410.56 785.49 415.54 788.41"/><polygon class="cls-28" points="429.42 780.27 436.36 776.19 431.38 773.27 424.44 777.35 429.42 780.27"/><polygon class="cls-28" points="443.3 772.12 450.24 768.05 445.25 765.12 438.31 769.2 443.3 772.12"/><polygon class="cls-28" points="457.18 763.97 464.12 759.9 459.13 756.98 452.19 761.05 457.18 763.97"/><polygon class="cls-28" points="422.08 792.07 429.02 788 424.04 785.08 417.1 789.15 422.08 792.07"/><polygon class="cls-28" points="435.96 783.93 442.9 779.85 437.92 776.93 430.98 781 435.96 783.93"/><polygon class="cls-28" points="449.84 775.78 456.78 771.71 451.79 768.78 444.85 772.86 449.84 775.78"/><polygon class="cls-28" points="463.72 767.63 470.66 763.56 465.67 760.64 458.73 764.71 463.72 767.63"/><polygon class="cls-28" points="471.06 755.83 478 751.75 473.01 748.83 466.07 752.9 471.06 755.83"/><polygon class="cls-28" points="428.6 795.99 424.44 793.55 466.07 769.11 470.23 771.54 428.6 795.99"/><polygon class="cls-28" points="473.17 765.12 477.17 767.47 484.11 763.4 480.37 761.21 473.17 765.12"/><polygon class="cls-28" points="473.15 756.98 480.29 753.02 485.08 755.83 478 759.82 473.15 756.98"/><g id="Board_2" data-name="Board 2"><path class="cls-3" d="M1667,654.38,1607.15,688a17.05,17.05,0,0,1-16.56.07l-15.52-8.54-160.53-92.68a17,17,0,0,1,0-29.51l62.37-36a17,17,0,0,1,17.26.13l173.19,103.46A17,17,0,0,1,1667,654.38Z" transform="translate(-771.11 12.93)"/><g id="Board"><polygon class="cls-17" points="641.09 356.71 641.13 544.71 850.44 665.6 850.48 477.61 641.09 356.71"/><path class="cls-19" d="M1629.59,462.32V645.71a4,4,0,0,1-2,3.48l-6,3.48,0-185.67a4,4,0,0,0-2-3.48L1412.2,343.79l7.39-4.28a4,4,0,0,1,4,0l204,119.33A4,4,0,0,1,1629.59,462.32Z" transform="translate(-771.11 12.93)"/><polygon class="cls-29" points="757.43 458.85 757.43 450.75 664.39 397.03 664.39 405.28 757.43 458.85"/><polygon class="cls-29" points="803.96 486.49 803.96 478.39 762.06 454.08 762.06 462.34 803.96 486.49"/><polygon class="cls-30" points="757.43 537.03 757.43 528.93 664.39 475.21 664.39 483.47 757.43 537.03"/><polygon class="cls-31" points="757.43 565.57 757.43 557.47 664.39 503.75 664.39 512.01 757.43 565.57"/><polygon class="cls-30" points="803.96 564.68 803.96 556.58 762.06 532.27 762.06 540.52 803.96 564.68"/><polygon class="cls-32" points="774.75 603.36 774.75 595.25 732.86 570.94 732.86 579.2 774.75 603.36"/><polygon class="cls-32" points="726 574.95 726 566.85 684.11 542.54 684.11 550.79 726 574.95"/><polygon class="cls-33" points="742.17 503.58 742.17 495.48 649.13 441.76 649.13 450.02 742.17 503.58"/><polygon class="cls-34" points="827.35 526 827.35 517.9 687.65 437.47 687.65 445.73 827.35 526"/><polygon class="cls-33" points="788.7 531.23 788.7 523.13 746.8 498.81 746.8 507.07 788.7 531.23"/></g><path class="cls-19" d="M1390,545.81" transform="translate(-771.11 12.93)"/></g><g id="Librera"><polygon class="cls-35" points="625.76 364.29 625.76 552.31 602.46 565.71 602.46 377.7 532.71 337.38 555.98 324 625.76 364.29"/><polygon class="cls-22" points="602.46 377.7 602.46 565.71 579.23 552.26 509.45 511.66 509.45 323.65 602.46 377.7"/><path class="cls-20" d="M1303.82,351.31" transform="translate(-771.11 12.93)"/><polygon class="cls-23" points="596.32 380.07 596.3 401.86 596.27 425.99 596.26 431.19 596.26 433.78 593.84 432.44 589.37 429.96 567.91 418.07 567.9 418.06 565.85 416.93 559.66 413.5 559.4 359.15 596.32 380.07"/><polygon class="cls-23" points="596.32 440.61 596.26 494.31 559.66 474.03 559.4 419.68 596.32 440.61"/><polygon class="cls-23" points="596.32 501.14 596.26 554.85 559.66 534.56 559.4 480.21 596.32 501.14"/><polygon class="cls-23" points="552.3 356.22 552.25 409.93 515.65 389.64 515.39 335.29 552.3 356.22"/><polygon class="cls-23" points="552.3 416.75 552.25 470.46 515.65 450.17 515.39 395.82 552.3 416.75"/><polygon class="cls-23" points="552.3 477.28 552.25 530.99 515.65 510.7 515.39 456.35 552.3 477.28"/><polygon class="cls-36" points="602.46 377.7 625.75 364.29 532.52 310.65 509.25 324.04 602.46 377.7"/><polygon class="cls-37" points="559.66 474.03 596.32 458.85 596.26 494.31 559.66 474.03"/><polygon class="cls-37" points="559.53 413.36 596.19 398.18 596.13 433.64 559.53 413.36"/><polygon class="cls-37" points="515.52 389.64 552.17 374.46 552.12 409.93 515.52 389.64"/><polygon class="cls-37" points="515.52 449.91 552.17 434.73 552.12 470.2 515.52 449.91"/><polygon class="cls-37" points="515.52 510.19 552.17 495 552.12 530.47 515.52 510.19"/><polygon class="cls-37" points="559.53 534.23 596.19 519.05 596.13 554.51 559.53 534.23"/><polygon class="cls-35" points="563.16 326.66 586.62 340.01 556.6 357.29 535.1 342.84 563.16 326.66"/><polygon class="cls-17" points="535.1 342.84 535.1 348 556.13 362.2 556.6 357.29 535.1 342.84"/><polygon class="cls-38" points="556.6 357.29 586.62 340.01 586.6 346.43 556.13 362.2 556.6 357.29"/><polygon class="cls-39" points="539.06 348.4 555.86 359.56 555.88 358.93 539.07 347.77 539.06 348.4"/><polygon class="cls-39" points="537.21 345.84 554.01 357 554.03 356.36 537.23 345.2 537.21 345.84"/><polygon class="cls-39" points="535.44 347.26 552.25 358.42 552.26 357.78 535.46 346.62 535.44 347.26"/><polygon class="cls-35" points="568.16 325.07 591.61 338.42 561.6 355.7 540.09 341.26 568.16 325.07"/><polygon class="cls-17" points="540.09 341.26 540.09 346.42 561.13 360.62 561.6 355.7 540.09 341.26"/><polygon class="cls-38" points="561.6 355.7 591.61 338.42 591.59 344.84 561.13 360.62 561.6 355.7"/><polygon class="cls-39" points="544.05 346.82 560.85 357.98 560.87 357.34 544.07 346.18 544.05 346.82"/><polygon class="cls-39" points="542.2 344.25 559.01 355.41 559.02 354.77 542.22 343.61 542.2 344.25"/><polygon class="cls-39" points="540.43 345.68 557.24 356.83 557.26 356.2 540.45 345.04 540.43 345.68"/><polygon class="cls-40" points="563.9 316.98 587.35 330.33 557.34 347.61 535.84 333.17 563.9 316.98"/><polygon class="cls-17" points="535.84 333.17 535.84 338.32 556.87 352.52 557.34 347.61 535.84 333.17"/><polygon class="cls-41" points="557.34 347.61 587.35 330.33 587.34 336.75 556.87 352.52 557.34 347.61"/><polygon class="cls-39" points="539.79 338.73 556.6 349.88 556.62 349.25 539.81 338.09 539.79 338.73"/><polygon class="cls-39" points="537.95 336.16 554.75 347.32 554.77 346.68 537.96 335.52 537.95 336.16"/><polygon class="cls-39" points="536.18 337.58 552.98 348.74 553 348.1 536.2 336.94 536.18 337.58"/><polygon class="cls-33" points="593.91 346.18 617.37 359.53 587.35 376.81 565.85 362.36 593.91 346.18"/><polygon class="cls-17" points="565.85 362.36 565.85 367.52 586.88 381.72 587.35 376.81 565.85 362.36"/><polygon class="cls-31" points="587.35 376.81 617.37 359.53 617.35 365.95 586.88 381.72 587.35 376.81"/><polygon class="cls-39" points="569.81 367.93 586.61 379.08 586.63 378.44 569.83 367.29 569.81 367.93"/><polygon class="cls-39" points="567.96 365.36 584.77 376.51 584.78 375.88 567.98 364.72 567.96 365.36"/><polygon class="cls-39" points="566.19 366.78 583 377.94 583.01 377.3 566.21 366.14 566.19 366.78"/><polygon class="cls-22" points="602.46 405.36 602.46 427.98 596.26 431.19 596.27 425.99 596.3 401.86 602.46 405.36"/><polygon class="cls-42" points="596.3 401.86 596.27 425.99 589.37 429.96 587.35 431.13 567.91 418.07 567.9 418.06 565.85 416.69 593.91 400.5 596.3 401.86"/><polygon class="cls-17" points="565.85 416.68 565.85 421.84 586.88 436.04 587.35 431.13 565.85 416.68"/><polygon class="cls-43" points="596.27 425.99 596.26 431.19 593.84 432.44 586.88 436.04 587.35 431.13 589.37 429.96 596.27 425.99"/><polygon class="cls-39" points="569.81 422.25 586.61 433.4 586.63 432.76 569.83 421.61 569.81 422.25"/><polygon class="cls-39" points="567.96 419.68 584.77 430.83 584.78 430.2 567.98 419.04 567.96 419.68"/><polygon class="cls-39" points="566.19 421.1 583 432.26 583.01 431.62 566.21 420.46 566.19 421.1"/><polygon class="cls-22" points="558.74 506.13 558.74 528.75 552.55 531.96 552.55 526.77 552.58 502.63 558.74 506.13"/><polygon class="cls-40" points="552.58 502.63 552.55 526.77 545.65 530.73 543.63 531.9 524.2 518.85 524.18 518.84 522.13 517.46 550.2 501.28 552.58 502.63"/><polygon class="cls-17" points="522.13 517.46 522.13 522.62 543.17 536.82 543.64 531.9 522.13 517.46"/><polygon class="cls-41" points="552.55 526.77 552.55 531.96 550.13 533.21 543.17 536.82 543.63 531.9 545.65 530.73 552.55 526.77"/><polygon class="cls-39" points="526.09 523.02 542.89 534.18 542.91 533.54 526.11 522.38 526.09 523.02"/><polygon class="cls-39" points="524.24 520.45 541.05 531.61 541.07 530.97 524.26 519.81 524.24 520.45"/><polygon class="cls-39" points="522.48 521.88 539.28 533.03 539.3 532.4 522.49 521.24 522.48 521.88"/></g><g id="Planta"><g id="mesa_de_noche" data-name="mesa de noche"><path class="cls-3" d="M1676.32,752.16l52.44,30.35a4.33,4.33,0,0,0,4.19.07l61.26-32.77a4,4,0,0,0,.2-7l-57.75-35a4.27,4.27,0,0,0-4.61.1l-56,37.38A4,4,0,0,0,1676.32,752.16Z" transform="translate(-771.11 12.93)"/><polygon class="cls-44" points="1036.01 744.8 1039.99 755.52 1037.45 755.84 1031.12 748.41 1036.01 744.8"/><polygon class="cls-44" points="898.24 745.72 895.69 756.84 898.24 756.84 903.56 748.7 898.24 745.72"/><polygon class="cls-44" points="967.22 781.07 966.12 792.41 963.69 791.65 961.21 782.32 967.22 781.07"/><polygon class="cls-22" points="897.44 746.86 967.18 707.84 1036.93 746.86 967.18 785.92 897.44 746.86"/><polygon class="cls-23" points="967.18 785.92 967.22 681.79 1036.93 642.75 1036.93 746.86 967.18 785.92"/><polygon class="cls-22" points="897.44 746.83 897.44 642.78 967.22 681.77 967.18 785.89 897.44 746.83"/><polygon class="cls-19" points="1062.66 629.13 1062.66 636.86 967.22 689.55 874.18 634.49 874.18 627.79 967.87 576.86 1062.66 629.13"/><polygon class="cls-3" points="1062.66 629.13 967.22 681.77 874.18 627.79 967.18 576.48 967.87 576.86 1062.66 629.13"/><polygon class="cls-41" points="1062.66 629.13 1062.66 636.86 967.22 689.55 967.22 681.77 1062.66 629.13"/><path class="cls-19" d="M1645.3,614.86" transform="translate(-771.11 12.93)"/><polygon class="cls-41" points="967.22 681.77 967.22 689.55 874.18 634.49 874.18 627.79 967.22 681.77"/><polygon class="cls-23" points="912.06 701.28 952.69 724.01 952.69 732 911.97 708.09 912.06 701.28"/><polygon class="cls-23" points="912.06 688.45 952.69 711.18 952.69 719.17 911.97 695.25 912.06 688.45"/></g><path class="cls-12" d="M1738.29,587.76" transform="translate(-771.11 12.93)"/><polygon class="cls-12" points="967.22 601.76 967.07 653.81 990.37 640.93 1013.75 575.65 967.22 601.76"/><polygon class="cls-16" points="967.07 653.81 943.81 640.59 920.7 575.74 967.22 601.76 967.07 653.81"/><polygon class="cls-41" points="913.81 571.88 913.81 582.24 967.07 609.38 1025.03 576.86 1025.03 569.34 967.07 542.22 913.81 571.88"/><polygon class="cls-3" points="967.07 556.21 943.06 570.46 967.07 582.67 990.41 567.91 967.07 556.21"/><path class="cls-45" d="M1742.29,561.14s-30.43-104.64,2.43-90.56,8.36,86.47,8.36,86.47Z" transform="translate(-771.11 12.93)"/><path class="cls-34" d="M1719.85,559s-23.78-76.19,2.85-65.65,6,62.79,6,62.79Z" transform="translate(-771.11 12.93)"/><path class="cls-46" d="M1726.47,562.22s34.32-72.31,6.46-65.4-14.8,61.4-14.8,61.4Z" transform="translate(-771.11 12.93)"/><path class="cls-47" d="M1734.5,565.74s-24.17-45.92,2.51-39.45,6.31,37.77,6.31,37.77Z" transform="translate(-771.11 12.93)"/></g><g id="persona_1" data-name="persona 1"><polygon class="cls-5" points="646.22 638.3 654.11 638.3 657.85 607.13 646.22 607.13 646.22 638.3"/><path class="cls-4" d="M1440.42,632.87h-24.78v-9.81h15.21a9.69,9.69,0,0,1,9.57,9.81Z" transform="translate(-771.11 12.93)"/><polygon class="cls-5" points="616.65 638.3 624.53 638.3 628.28 607.13 616.65 607.13 616.65 638.3"/><path class="cls-4" d="M1410.84,632.87h-24.77v-9.81h15.2a9.69,9.69,0,0,1,9.57,9.81Z" transform="translate(-771.11 12.93)"/><path class="cls-5" d="M1388.72,532.53a7.19,7.19,0,0,0,1.33-10.77l5.19-75.52-15,1.49-.41,73.95a7.24,7.24,0,0,0,.28,10.06,6.81,6.81,0,0,0,8.56.79Z" transform="translate(-771.11 12.93)"/><path class="cls-4" d="M1417.57,609.67a2.93,2.93,0,0,1-2.87-2.62l-4.59-39.29a2.24,2.24,0,0,0-4.45-.08l-5.77,37.62a2.91,2.91,0,0,1-2.86,2.5h-9.36a2.93,2.93,0,0,1-2.89-3v0l4.46-83.4a2.94,2.94,0,0,1,2.48-2.92l34.72-5.17a2.9,2.9,0,0,1,3.27,2.52,3.15,3.15,0,0,1,0,.44l-.6,90a2.94,2.94,0,0,1-2.76,2.94l-8.67.42Z" transform="translate(-771.11 12.93)"/><path class="cls-48" d="M1399.57,524.56a28.5,28.5,0,0,1-9.79-1.79,2.91,2.91,0,0,1-1.87-2.64c-.3-6.81-2.05-41.89-7.16-63.28a22.17,22.17,0,0,1,8.13-22.79l.84-.6a20.32,20.32,0,0,1,20.18-1.62A21.82,21.82,0,0,1,1422.35,449l8.32,63.32a3,3,0,0,1-.6,2.24,2.83,2.83,0,0,1-2,1.1c-2.88.3-8.86,1.44-16.51,5.8A24.1,24.1,0,0,1,1399.57,524.56Z" transform="translate(-771.11 12.93)"/><path class="cls-48" d="M1389.4,472.07l-13.69-3.8a3,3,0,0,1-2-3.64l4.81-18.2a8,8,0,0,1,9.78-5.75,8.16,8.16,0,0,1,5.87,8.34l-1.09,20.35a2.92,2.92,0,0,1-3,2.8A2.51,2.51,0,0,1,1389.4,472.07Z" transform="translate(-771.11 12.93)"/><ellipse class="cls-5" cx="633.53" cy="419.98" rx="15.79" ry="16.19"/><path class="cls-5" d="M1461.86,438.86a6.68,6.68,0,0,0-.15,1.08l-27.62,16.34-6.71-4-7.16,9.6,14.36,10.5,31.51-25.49a6.69,6.69,0,0,0,8.67-4.09,7,7,0,0,0-4-8.89,6.71,6.71,0,0,0-8.67,4.09C1462,438.31,1461.93,438.58,1461.86,438.86Z" transform="translate(-771.11 12.93)"/><path class="cls-48" d="M1431.8,457.07,1419.9,465a2.85,2.85,0,0,1-4-.87l-10-15.82a8.3,8.3,0,0,1,2.35-11.3,7.83,7.83,0,0,1,10,1.08l14,14.41a3,3,0,0,1,0,4.2A3.6,3.6,0,0,1,1431.8,457.07Z" transform="translate(-771.11 12.93)"/><path class="cls-4" d="M1393.47,419.86a5.07,5.07,0,0,0,8.8-2.9,5.91,5.91,0,0,0,0-1c-.2-1.94-1.3-3.71-1-5.77a3,3,0,0,1,.54-1.41c2.34-3.23,7.86,1.44,10.07-1.48,1.36-1.79-.24-4.61.8-6.61,1.38-2.64,5.46-1.33,8-2.78,2.85-1.61,2.67-6.08.8-8.8a13.36,13.36,0,0,0-10.23-5.34,26.85,26.85,0,0,0-11.57,2.31c-4.19,1.68-8.35,4-10.93,7.77-3.14,4.6-3.44,10.78-1.87,16.15C1387.8,413.24,1391.06,417.24,1393.47,419.86Z" transform="translate(-771.11 12.93)"/></g><path class="cls-5" d="M1320.22,789.81l-1.91,9.31a7.7,7.7,0,0,0,10.1,8.8h0a7.69,7.69,0,0,0,4.82-9.44l-2.57-8.67,23.22-67.91h-19.73Z" transform="translate(-771.11 12.93)"/><circle class="cls-5" cx="528.21" cy="649.5" r="18"/><path class="cls-5" d="M1296.42,668.49l23.8-2.9c-5.46-6.85-7.53-14-5.81-21.48l-21.48,2.32Z" transform="translate(-771.11 12.93)"/><path class="cls-7" d="M1266.81,768.92l56.31-12.77c12-9.36,19.85-27.93,25.89-50.38,4.4-16.36-3.51-33.78-19-40.53l-1.12-.46-12.69-5-20.9,1.74-7.45,2a8.47,8.47,0,0,0-6.14,6.9C1271.64,707.24,1265,741.35,1266.81,768.92Z" transform="translate(-771.11 12.93)"/><polygon class="cls-7" points="560.13 745.86 585.1 745.86 576.97 697.1 560.13 698.84 560.13 745.86"/><path class="cls-4" d="M1247.07,944.22h15.1l31.63-111.16L1306,944.22h17.69l7-178.21c-2.65-13.67-2.6-30-1.16-47.6,12.45-8.71,7.89-29.4,9.27-50.18a.82.82,0,0,0-.18-.56l-8-4.17a.79.79,0,0,0-1.38.58c-.2,14.53,3.72,31.81-2.59,43.31-6.85-23.43-15.78-43.09-33.17-47.48a1.85,1.85,0,0,0-1,0l-3.24.92a1.93,1.93,0,0,0-1.32,2.38,1.91,1.91,0,0,0,.86,1.11c15.9,9.83,26.18,26.28,26.83,54.07-12.37,17.52-24.42,27.88-46.12,40.63a8.1,8.1,0,0,0-3.93,6.15Z" transform="translate(-771.11 12.93)"/><path class="cls-4" d="M1301.65,652.91l12.76-2.41,7.59-13a17.22,17.22,0,0,0-2-20.19h0a17.21,17.21,0,0,0-15.3-5.59l-16.53,2.36a10.93,10.93,0,0,0-9.27,12.36v.07l11.14,1.9Z" transform="translate(-771.11 12.93)"/><path class="cls-4" d="M1229.4,963.67H1256a8.74,8.74,0,0,0,8.74-8.75,8.9,8.9,0,0,0-.09-1.26L1263,942.22l-12.06-.89-24,11.21a5.85,5.85,0,0,0-3.34,5.84h0A5.84,5.84,0,0,0,1229.4,963.67Z" transform="translate(-771.11 12.93)"/><path class="cls-4" d="M1289.77,963.67h26.59a8.74,8.74,0,0,0,8.74-8.75,8.9,8.9,0,0,0-.09-1.26l-1.67-11.44-12.06-.89-24,11.21a5.85,5.85,0,0,0-3.34,5.84h0A5.84,5.84,0,0,0,1289.77,963.67Z" transform="translate(-771.11 12.93)"/><path class="cls-49" d="M1239.25,768.45l-11.5,4a8.14,8.14,0,0,0-2.36,14.08h0a8.14,8.14,0,0,0,9.43.44l10.48-6.75,35.8-36.38,5.54-42.76a32.57,32.57,0,0,0-11.48-29.24h0L1263.49,737Z" transform="translate(-771.11 12.93)"/><path class="cls-7" d="M1263.91,724.22h25.54l-.58-61h0A29.44,29.44,0,0,0,1266.63,690Z" transform="translate(-771.11 12.93)"/><ellipse class="cls-5" cx="522.95" cy="651.94" rx="3.16" ry="3.79"/><path class="cls-50" d="M1097.55,788.47a108.74,108.74,0,0,1,9-34.28c1.36-3,2.84-6,4.47-8.87a.67.67,0,0,0-.27-.9.66.66,0,0,0-.87.23,110.39,110.39,0,0,0-12.26,33.81q-.91,5-1.38,10c-.08.85,1.24.84,1.32,0Z" transform="translate(-771.11 12.93)"/><circle class="cls-7" cx="343.1" cy="751.99" r="8.38"/><path class="cls-50" d="M1098.41,788.69a70.39,70.39,0,0,1,5.83-22.24q1.32-2.94,2.9-5.75a.43.43,0,0,0-.74-.43,71.43,71.43,0,0,0-8,21.93q-.6,3.22-.9,6.49C1097.5,789.24,1098.36,789.24,1098.41,788.69Z" transform="translate(-771.11 12.93)"/><circle class="cls-7" cx="338.11" cy="769.57" r="5.44"/><path class="cls-50" d="M1097.33,788.18a70.31,70.31,0,0,1-9.08-21.12q-.78-3.13-1.26-6.32a.42.42,0,0,0-.49-.35.43.43,0,0,0-.36.46,71.78,71.78,0,0,0,7.22,22.19c1,1.93,2.11,3.83,3.29,5.67.3.46,1-.07.68-.53Z" transform="translate(-771.11 12.93)"/><circle class="cls-7" cx="1086.14" cy="756.26" r="5.44" transform="translate(-777.7 22.49) rotate(-0.5)"/><path class="cls-51" d="M1080.64,793V782.31a4,4,0,0,1,4-4h24.93a4,4,0,0,1,4,4V793a4,4,0,0,1-4,4h-24.93A4,4,0,0,1,1080.64,793Z" transform="translate(-771.11 12.93)"/><path class="cls-52" d="M1362.81,655.07c0,4.79-3.89,7-8.68,7s-8.69-2.18-8.69-7,1.93-10.4,8.69-8.47C1360.88,643.71,1362.81,650.27,1362.81,655.07Z" transform="translate(-771.11 12.93)"/><path class="cls-48" d="M1360.13,643.46c3-2.47.65-7.52-3.12-6.55a3,3,0,0,0-1.36.73c-2.32,2.18-2.68,7.78-2.68,7.78A10.27,10.27,0,0,0,1360.13,643.46Z" transform="translate(-771.11 12.93)"/><path class="cls-52" d="M941.7,625.93c0,4.79-3.88,7-8.68,7s-8.69-2.18-8.69-7,1.93-10.4,8.69-8.47C939.77,614.57,941.7,621.13,941.7,625.93Z" transform="translate(-771.11 12.93)"/><path class="cls-48" d="M939,614.32c3-2.47.65-7.52-3.12-6.55a3,3,0,0,0-1.36.72c-2.32,2.19-2.67,7.79-2.67,7.79A10.25,10.25,0,0,0,939,614.32Z" transform="translate(-771.11 12.93)"/><path class="cls-52" d="M1364.58,463.18c0,4.79-3.89,7-8.69,7s-8.68-2.18-8.68-7,1.93-10.4,8.68-8.47C1362.65,451.82,1364.58,458.38,1364.58,463.18Z" transform="translate(-771.11 12.93)"/><path class="cls-48" d="M1361.9,451.57c3-2.47.65-7.52-3.13-6.55a3.06,3.06,0,0,0-1.36.73c-2.31,2.18-2.67,7.78-2.67,7.78A10.27,10.27,0,0,0,1361.9,451.57Z" transform="translate(-771.11 12.93)"/></g></svg>