<svg xmlns="http://www.w3.org/2000/svg" viewBox="0 0 409.429 116.77"><defs><style>.cls-1{fill:#fff;}</style></defs><title>Recurso 1</title><g id="Capa_2" data-name="Capa 2"><g id="capa_template" data-name="capa template"><path d="M73.9,25.2a3.43,3.43,0,0,0-1.06,1.281C70.1,32.189,71.31,32.41,71.31,32.41c2.4,3.36,11.58-.24,11.58-.24,1.8.72,27.144-16.2,22.824-24.48S94.11.01,94.11.01C73.71.73,70.024,2.77,53.1,13.93,39.1,23.169,41.8,30.105,43.149,32.219a6.16,6.16,0,0,1,.6,1.434C45.346,38.53,64.566,44.122,72.09,45.49c7.92,1.44,16.2,6.84,13.32,15.48S59.13,81.85,59.13,81.85s-47.15,22.1-52.92,11.52,43.2-37.08,43.2-37.08c-1.8-1.8-10.35,4.38-11.88,4.32-1.3-.051-18.36,10.8-18.36,10.8L8.122,79.7a6.778,6.778,0,0,0-.876.783l-4.333,4.6a8.016,8.016,0,0,0-1.723,2.8c-1.884,5.268-5.162,20.545,23.02,14.849C58.05,95.89,58.98,89.83,64.6,88.251,71.241,86.384,81.81,76.81,84.33,75.37s12.24-15.48,5.04-23.4S62.73,40.09,62.73,40.09l-3.24-1.08-3.6-1.32-2.52-1.56c-5.04-6.84-.266-11.4-.266-11.4C58.59,16.33,81.81,4.857,87.649,4.09c6.06-.8,7.9,0,7.9,0s11.82,1.08-.78,12.24S75.69,27.13,74.61,26.77s1.08-2.88,1.08-2.88Z"/><path d="M108.72,76.99s-13.5,6.3-7.56-4.5,9.18-14.04,9.18-14.04,13.14-14.04,17.28-13.68c0,0,4.14-.734,6.48-.007s1.44-3.233,1.44-3.233-15.482-2.552-24.117,6.734a12.553,12.553,0,0,1-1.512,1.423c-3.767,2.906-19.593,15.784-16.231,24.592.325.852.685,1.685.958,2.555,1.081,3.447,5.459,11.92,20.922.876,18.9-13.5,17.82-21.78,17.82-21.78s6.66,1.62,8.46,0a11.677,11.677,0,0,0,2.52-3.06s-13.32-.72-12.42-5.94c0,0-1.26-1.32-1.8-.48s-5.22,2.863-4.14,5.541,4.14,2.5,4.14,2.5S126.36,63.67,108.72,76.99Z"/><path d="M179.97,14.17s-46.44,51.84-41.04,61.92A101.768,101.768,0,0,0,157.65,62.2l-.36,2.727s-18.36,20.16-22.32,15.12-4.32-7.56,4.32-21.24S169.17,7.33,177.45,9.13s6.84,2.88,6.84,2.88l-1.08,1.8Z"/><path d="M157.65,62.2S171.63,42.73,174.27,44.41s7.92,2.88,4.32,6.72-18.96,19.68-15.84,24.96c0,0,7.512-2.16,21.636-18l1.884,1.44s-30,33.6-32.16,18.48c0,0,.84-12.752,3.42-14.9"/><path d="M183.15,30.01s-9.36,7.278-2.88,11.2c0,0,6.72-9.039,10.08-7.359C190.35,33.85,188.19,27.13,183.15,30.01Z"/><path d="M210.6,48.01s-.72,3.24-4.68,6.3,3.96-1.08,3.96-1.08,8.64-4.5,3.6-10.62-26.285,3.3-27.21,10.62a13.109,13.109,0,0,0,4.53,11.52s-23.58,9.861-15.66,17.17,24.48-11.05,24.48-11.05-.36-3.06-4.68-5.4-3.96-8.1-3.96-8.1S212.22,38.47,210.6,48.01Z"/><path class="cls-1" d="M193.14,68.53s-14.22,11.7-13.68,7.92,12.24-9,12.24-9Z"/><path d="M194.154,66.264S220.18,52.228,222.34,54.748s.18-3.96-1.62-3.06-28.98,12.24-28.98,12.24Z"/><path d="M298.59,24.49c-13,13-22,28-34,42-1,2-3,4-2,6,2,2,4,1,6.33.18a4.862,4.862,0,0,1-1.294,1.154,3.461,3.461,0,0,1,1.294-1.154c-1.33.82-2.33,2.82-4.33,2.82-5,0-6-5-5-9,8-21,22-38,41-52,3-2,6-2,8,0,0,0,1,1,1,1.6C309.59,16.09,300.59,22.49,298.59,24.49Z"/><path d="M262.282,7.048C302.054-5.354,317.55,2.41,317.55,2.41s31.2,5.04,20.4,36.24-66.24,60.72-101.04,63.12-29.4-11.28-29.4-11.28,3-24.24,39.958-30.48c0,0-34.32,10.08-34.56,32.64,0,0,14.52,22.018,95.76-30.511,0,0,53.4-44.1,4.92-56.473,0,0-20.76-6.136-44.94,5.624,0,0-34.56,14.04-21.24,25.56,0,0-1.44,3.96-7.56-5.04-5.012-7.372,13.884-21.747,23.854-25.323,2.2-.79,3.969-1.053,4.946-.6"/><path d="M338.31,62.59s6.12,6.6,24.48-16.14c0,0-19.134,6.671-26.452,20.261a22.835,22.835,0,0,0-2.708,8.779s.36,9.42,36-19.02v2.88s-27.952,28.729-43.56,20.52c0,0-5.22-4.972,2.516-16.153a55.871,55.871,0,0,1,6.484-7.607c16.56-16.56,30.6-17.16,31.32-9.66,0,0-3.12,19.68-30.343,20.827Z"/><path d="M409.41,39.64S374.13,84.1,365.85,81.345s3.78-24.875,3.78-24.875,8.192-16.959,11.88-14.633c6.48,4.087,3.96,7.308,3.96,7.308s-16.2,12-12.96,24.6c0,0,20.7-17.01,32.22-32.49C404.73,41.26,409.77,34.42,409.41,39.64Z"/><path d="M77.19,102.052c-12.787,4.138-6.72,8.118-6.72,8.118-20.16-3.84-4.32-12.96-4.32-12.96s140.513-40.947,308.88,19.56C375.03,116.77,188.31,66.1,77.19,102.052Z"/></g></g></svg>